<!-- Generator: Adobe Illustrator 21.1.0, SVG Export Plug-In  -->
<svg version="1.1"
	 xmlns="http://www.w3.org/2000/svg" xmlns:xlink="http://www.w3.org/1999/xlink" xmlns:a="http://ns.adobe.com/AdobeSVGViewerExtensions/3.0/"
	 x="0px" y="0px" width="698.97px" height="76.32px" viewBox="0 0 698.97 76.32" style="enable-background:new 0 0 698.97 76.32;"
	 xml:space="preserve">
<style type="text/css">
	.st0{fill:#B3473B;}
	.st1{fill:#FFFFFF;}
</style>
<defs>
</defs>
<g>
	<path class="st0" d="M3.78,54.108C1.26,51.974,0,48.865,0,44.784c0-4.176,1.428-7.427,4.284-9.756
		c2.855-2.327,6.756-3.492,11.7-3.492c2.111,0,4.212,0.192,6.3,0.576c2.088,0.385,3.899,0.912,5.436,1.584v-1.224
		c0-2.207-0.792-3.853-2.376-4.933s-4.2-1.619-7.848-1.619c-2.353,0-4.705,0.252-7.056,0.756c-2.353,0.504-4.417,1.164-6.192,1.979
		V19.44c1.632-0.815,3.863-1.487,6.696-2.016c2.831-0.528,5.783-0.792,8.855-0.792c7.057,0,12.252,1.416,15.589,4.248
		c3.335,2.832,5.004,6.721,5.004,11.663v23.688H27.72V42.408c-2.496-1.296-5.327-1.943-8.495-1.943c-2.16,0-3.733,0.349-4.717,1.044
		c-0.984,0.696-1.476,1.788-1.476,3.275c0,2.736,1.848,4.104,5.544,4.104c1.44,0,2.711-0.24,3.816-0.721v8.137
		c-2.017,0.671-4.801,1.008-8.353,1.008C9.72,57.313,6.3,56.244,3.78,54.108z"/>
	<path class="st0" d="M17.928,6.408V0h11.304v3.816c0,0.624,0.133,1.057,0.396,1.296c0.265,0.241,0.709,0.36,1.332,0.36h15.696v7.92
		H25.271C20.376,13.393,17.928,11.064,17.928,6.408z"/>
	<path class="st0" d="M48.672,33.769l-3.6-6.264c5.855-7.248,13.319-10.872,22.392-10.872c6.383,0,11.304,1.403,14.76,4.212
		c3.456,2.808,5.185,6.685,5.185,11.628v23.76H74.735V33.48c0-4.655-2.424-6.984-7.271-6.984c-3.553,0-6.48,0.984-8.784,2.952
		l2.664,4.536v22.248H48.672V33.769z"/>
	<path class="st0" d="M103.536,55.188c-3.072-1.415-5.448-3.396-7.128-5.94c-1.681-2.543-2.52-5.423-2.52-8.64V17.713h12.672v21.815
		c0,2.592,0.612,4.561,1.836,5.904s3.18,2.016,5.868,2.016c5.136,0,7.704-2.639,7.704-7.92v-1.872h-7.057v-9.144h7.057v-10.8h12.672
		v10.8h3.384v9.144h-3.384v2.952c0,3.217-0.841,6.097-2.521,8.64c-1.681,2.545-4.057,4.525-7.128,5.94
		c-3.072,1.415-6.648,2.124-10.728,2.124C110.184,57.313,106.607,56.604,103.536,55.188z"/>
	<path class="st0" d="M172.116,53.101c-2.473-2.809-3.708-6.444-3.708-10.908V33.48c0-2.399-0.54-4.164-1.62-5.292
		c-1.08-1.127-2.725-1.692-4.932-1.692c-1.584,0-3.024,0.229-4.32,0.685s-2.545,1.213-3.744,2.268l2.664,4.536v10.152
		c0,1.056,0.252,1.813,0.756,2.268c0.504,0.457,1.308,0.685,2.412,0.685h3.384v9.144h-10.439c-2.784,0-4.944-0.804-6.48-2.412
		c-1.536-1.607-2.304-3.827-2.304-6.66V33.769l-3.6-6.264c5.855-7.248,13.079-10.872,21.672-10.872
		c6.144,0,10.847,1.416,14.111,4.248c3.264,2.832,4.896,6.695,4.896,11.592V41.4c0,1.969,0.54,3.469,1.62,4.5
		c1.08,1.033,2.556,1.548,4.428,1.548c2.976,0,5.375-1.512,7.2-4.536V17.713h12.672v38.52h-11.808v-3.96
		c-1.584,1.633-3.421,2.88-5.509,3.744s-4.309,1.296-6.659,1.296C178.151,57.313,174.588,55.908,172.116,53.101z"/>
	<path class="st0" d="M213.588,32.473c-1.177-1.104-1.765-2.783-1.765-5.04v-6.624h11.304v3.24c0,1.104,0.601,1.655,1.801,1.655
		h8.496v8.425h-14.328C216.599,34.129,214.763,33.577,213.588,32.473z M213.588,51.732c-1.177-1.127-1.765-2.819-1.765-5.076v-6.624
		h11.304v3.313c0,1.104,0.601,1.655,1.801,1.655h8.496v8.425h-14.328C216.599,53.425,214.763,52.86,213.588,51.732z"/>
	<path class="st1" d="M240.263,33.769l-3.6-6.264c5.855-7.248,13.319-10.872,22.392-10.872c6.383,0,11.304,1.403,14.76,4.212
		c3.456,2.808,5.185,6.685,5.185,11.628v23.76h-12.673V33.48c0-4.655-2.424-6.984-7.271-6.984c-3.553,0-6.48,0.984-8.784,2.952
		l2.664,4.536v22.248h-12.672V33.769z"/>
	<path class="st1" d="M296.278,32.904c0-2.16-0.493-3.768-1.476-4.824c-0.984-1.055-2.677-1.584-5.076-1.584
		c-2.353,0-4.729,0.602-7.128,1.801v-9.505c1.104-0.575,2.651-1.079,4.644-1.512c1.991-0.432,3.899-0.647,5.724-0.647
		c5.185,0,9.145,1.356,11.881,4.067c2.735,2.713,4.104,6.637,4.104,11.772v23.76h-12.672V32.904z"/>
	<path class="st1" d="M321.55,56.484c-3.024-0.551-5.4-1.355-7.128-2.412v-9.504c2.063,1.2,4.428,2.16,7.092,2.88
		s5.051,1.08,7.164,1.08c2.207,0,3.839-0.203,4.896-0.612c1.056-0.407,1.584-1.115,1.584-2.124c0-0.911-0.504-1.631-1.512-2.159
		s-2.88-1.225-5.616-2.089l-2.231-0.72c-4.081-1.343-7.068-2.916-8.965-4.716s-2.844-4.284-2.844-7.452
		c0-3.84,1.536-6.804,4.608-8.892c3.071-2.088,7.175-3.132,12.312-3.132c2.88,0,5.663,0.288,8.353,0.863
		c2.688,0.576,4.848,1.321,6.479,2.232v9.647c-1.536-1.055-3.468-1.919-5.796-2.592c-2.328-0.671-4.548-1.008-6.66-1.008
		c-4.224,0-6.336,0.961-6.336,2.88c0,0.961,0.54,1.704,1.62,2.232s2.868,1.151,5.364,1.872l2.736,0.863
		c4.367,1.345,7.367,2.988,9,4.933c1.631,1.943,2.447,4.428,2.447,7.452c0,3.408-1.476,6.145-4.428,8.208
		c-2.952,2.063-7.356,3.096-13.212,3.096C327.549,57.313,324.573,57.036,321.55,56.484z"/>
	<path class="st1" d="M355.424,53.82c-1.512-1.607-2.268-3.827-2.268-6.66V17.713h12.672v26.424c0,1.104,0.216,1.872,0.647,2.304
		c0.433,0.432,1.176,0.648,2.232,0.648h2.52v9.144h-9.359C359.084,56.232,356.936,55.429,355.424,53.82z"/>
	<path class="st1" d="M377.708,33.769l-3.6-6.264c5.855-7.248,13.319-10.872,22.392-10.872c6.383,0,11.304,1.403,14.76,4.212
		c3.456,2.808,5.185,6.685,5.185,11.628v23.76h-12.673V33.48c0-4.655-2.424-6.984-7.271-6.984c-3.553,0-6.48,0.984-8.784,2.952
		l2.664,4.536v22.248h-12.672V33.769z"/>
	<path class="st1" d="M381.956,5.473h34.416v7.92h-34.416V5.473z"/>
	<path class="st1" d="M426.812,52.488c-3.553-3.215-5.328-7.992-5.328-14.328c0-4.464,0.937-8.304,2.809-11.52
		s4.535-5.688,7.991-7.416c3.456-1.729,7.561-2.592,12.313-2.592c7.488,0,13.02,1.717,16.596,5.147
		c3.575,3.433,5.364,8.028,5.364,13.788v20.664h-12.672V35.496c0-2.927-0.72-5.159-2.16-6.695s-3.816-2.305-7.128-2.305
		c-3.024,0-5.461,1.009-7.309,3.024s-2.771,4.896-2.771,8.64c0,3.265,0.756,5.629,2.268,7.092c1.513,1.465,3.78,2.196,6.805,2.196
		c1.631,0,3.239-0.288,4.823-0.864v9.721c-2.159,0.671-4.584,1.008-7.271,1.008C435.139,57.313,430.363,55.705,426.812,52.488z"/>
	<path class="st1" d="M479.696,56.341c-3.289-0.648-5.988-1.5-8.101-2.557V33.48h19.152v8.496h-6.912v4.464
		c0.623,0.288,1.464,0.528,2.52,0.72c1.056,0.192,2.136,0.288,3.24,0.288c3.359,0,5.892-0.899,7.597-2.7
		c1.703-1.8,2.556-4.451,2.556-7.956c0-3.646-0.997-6.274-2.988-7.884c-1.992-1.607-5.412-2.412-10.26-2.412
		c-2.496,0-5.076,0.241-7.74,0.721c-2.664,0.48-4.86,1.151-6.588,2.016V19.44c1.968-0.864,4.487-1.548,7.56-2.052
		c3.071-0.504,6.192-0.756,9.36-0.756c7.632,0,13.487,1.752,17.568,5.256c4.079,3.504,6.12,8.472,6.12,14.903
		c0,4.225-0.9,7.873-2.7,10.944c-1.8,3.072-4.44,5.437-7.92,7.092c-3.481,1.656-7.668,2.484-12.564,2.484
		C486.284,57.313,482.983,56.988,479.696,56.341z"/>
	<path class="st1" d="M500.036,69.624c0-0.912-0.168-1.548-0.504-1.907c-0.335-0.36-0.96-0.54-1.872-0.54h-2.232v-7.92h8.353
		c2.735,0,4.68,0.623,5.832,1.872c1.151,1.247,1.728,3.239,1.728,5.976v9.216h-11.304V69.624z"/>
	<path class="st1" d="M517.82,17.713h12.023v4.031c1.632-1.631,3.588-2.891,5.868-3.779c2.279-0.888,4.572-1.332,6.876-1.332
		c4.896,0,8.579,1.296,11.052,3.888c2.472,2.592,3.708,6.048,3.708,10.368v25.344h-12.672V32.328c0-3.888-1.992-5.832-5.976-5.832
		c-1.729,0-3.301,0.373-4.716,1.116c-1.417,0.745-2.581,1.885-3.492,3.42v25.2H517.82V17.713z"/>
	<path class="st1" d="M565.627,33.769l-3.6-6.264c5.855-7.248,13.319-10.872,22.392-10.872c6.383,0,11.304,1.403,14.76,4.212
		c3.456,2.808,5.185,6.685,5.185,11.628v23.76H591.69V33.48c0-4.655-2.424-6.984-7.271-6.984c-3.553,0-6.48,0.984-8.784,2.952
		l2.664,4.536v22.248h-12.672V33.769z"/>
	<path class="st1" d="M609.044,47.089h2.951c1.104,0,1.824-0.181,2.16-0.54c0.336-0.36,0.504-1.092,0.504-2.196V33.769l-5.04-6.264
		c2.64-3.456,5.856-6.132,9.648-8.028c3.791-1.896,8.063-2.844,12.816-2.844c6.383,0,11.304,1.403,14.76,4.212
		c3.456,2.808,5.184,6.685,5.184,11.628v23.76h-12.672V33.48c0-4.655-2.448-6.984-7.344-6.984c-3.265,0-6.073,0.937-8.424,2.809
		l3.743,4.68v13.104c0,2.832-0.756,5.064-2.268,6.695c-1.512,1.633-3.685,2.448-6.516,2.448h-9.504V47.089z"/>
	<path class="st1" d="M629.562,6.408V0h11.304v3.816c0,0.624,0.133,1.057,0.396,1.296c0.265,0.241,0.709,0.36,1.332,0.36h15.696
		v7.92h-21.385C632.01,13.393,629.562,11.064,629.562,6.408z"/>
	<path class="st1" d="M662.646,54.108c-3.721-2.135-5.58-5.292-5.58-9.468c0-1.824,0.456-3.443,1.368-4.86
		c0.911-1.415,2.16-2.508,3.744-3.275c-1.44-0.816-2.604-1.98-3.492-3.492c-0.889-1.513-1.332-3.156-1.332-4.933
		c0-3.456,1.26-6.228,3.78-8.315c2.52-2.088,6.18-3.132,10.979-3.132c1.392,0,2.832,0.107,4.32,0.323
		c1.487,0.217,2.615,0.444,3.384,0.685v9.216c-0.673-0.335-1.476-0.6-2.412-0.792c-0.936-0.191-1.788-0.288-2.556-0.288
		c-2.977,0-4.464,1.104-4.464,3.313c0,2.304,1.512,3.455,4.536,3.455h4.896v7.921h-4.896c-3.217,0-4.824,1.224-4.824,3.672
		c0,2.784,2.52,4.176,7.56,4.176c2.976,0,5.159-0.612,6.553-1.836c1.392-1.225,2.088-3.061,2.088-5.508V17.641h12.672v23.256
		c0,2.736-0.72,5.353-2.16,7.848c-1.44,2.497-3.744,4.549-6.912,6.156s-7.248,2.412-12.24,2.412
		C671.369,57.313,666.365,56.244,662.646,54.108z"/>
</g>
</svg>