<!-- Generator: Adobe Illustrator 21.1.0, SVG Export Plug-In  -->
<svg version="1.1"
	 xmlns="http://www.w3.org/2000/svg" xmlns:xlink="http://www.w3.org/1999/xlink" xmlns:a="http://ns.adobe.com/AdobeSVGViewerExtensions/3.0/"
	 x="0px" y="0px" width="907.62px" height="78.408px" viewBox="0 0 907.62 78.408"
	 style="enable-background:new 0 0 907.62 78.408;" xml:space="preserve">
<style type="text/css">
	.st0{fill:#B3473B;}
	.st1{fill:#FFFFFF;}
</style>
<defs>
</defs>
<g>
	<path class="st0" d="M3.6,35.856L0,29.593c5.855-7.248,13.319-10.872,22.392-10.872c6.383,0,11.304,1.403,14.76,4.212
		c3.456,2.808,5.185,6.685,5.185,11.628v23.76H29.663V35.568c0-4.655-2.424-6.984-7.271-6.984c-3.553,0-6.48,0.984-8.784,2.952
		l2.664,4.536V58.32H3.6V35.856z"/>
	<path class="st0" d="M59.615,34.992c0-2.16-0.493-3.768-1.476-4.824c-0.984-1.055-2.677-1.584-5.076-1.584
		c-2.353,0-4.729,0.602-7.128,1.801V20.88c1.104-0.575,2.651-1.079,4.644-1.512c1.991-0.432,3.899-0.647,5.724-0.647
		c5.185,0,9.145,1.356,11.881,4.067c2.735,2.713,4.104,6.637,4.104,11.772v23.76H59.615V34.992z"/>
	<path class="st0" d="M84.887,58.572c-3.024-0.551-5.4-1.355-7.128-2.412v-9.504c2.063,1.2,4.428,2.16,7.092,2.88
		s5.051,1.08,7.164,1.08c2.207,0,3.839-0.203,4.896-0.612c1.056-0.407,1.584-1.115,1.584-2.124c0-0.911-0.504-1.631-1.512-2.159
		s-2.88-1.225-5.616-2.089l-2.231-0.72c-4.081-1.343-7.068-2.916-8.965-4.716s-2.844-4.284-2.844-7.452
		c0-3.84,1.536-6.804,4.608-8.892c3.071-2.088,7.175-3.132,12.312-3.132c2.88,0,5.663,0.288,8.353,0.863
		c2.688,0.576,4.848,1.321,6.479,2.232v9.647c-1.536-1.055-3.468-1.919-5.796-2.592c-2.328-0.671-4.548-1.008-6.66-1.008
		c-4.224,0-6.336,0.961-6.336,2.88c0,0.961,0.54,1.704,1.62,2.232s2.868,1.151,5.364,1.872l2.736,0.863
		c4.367,1.345,7.367,2.988,9,4.933c1.631,1.943,2.447,4.428,2.447,7.452c0,3.408-1.476,6.145-4.428,8.208
		c-2.952,2.063-7.356,3.096-13.212,3.096C90.886,59.4,87.91,59.124,84.887,58.572z"/>
	<path class="st0" d="M118.762,55.908c-1.512-1.607-2.268-3.827-2.268-6.66V19.801h12.672v26.424c0,1.104,0.216,1.872,0.647,2.304
		c0.433,0.432,1.176,0.648,2.232,0.648h2.52v9.144h-9.359C122.422,58.32,120.273,57.517,118.762,55.908z"/>
	<path class="st0" d="M142.809,54.54c-3.337-3.239-5.004-8.123-5.004-14.651c0-4.367,0.672-8.147,2.017-11.341
		c1.343-3.191,3.203-5.627,5.58-7.308c2.376-1.68,5.027-2.52,7.955-2.52c1.775,0,3.336,0.323,4.681,0.972
		c1.343,0.647,2.423,1.501,3.24,2.556c1.728-2.351,4.727-3.527,9-3.527c3.888,0,6.959,1.141,9.216,3.42
		c2.255,2.28,3.384,5.244,3.384,8.892V58.32h-12.672V32.473c0-1.296-0.216-2.269-0.648-2.916c-0.432-0.648-1.151-0.973-2.16-0.973
		c-1.824,0-2.977,1.177-3.456,3.528h-5.111c-0.337-2.352-1.345-3.528-3.024-3.528c-1.488,0-2.688,0.961-3.6,2.88
		c-0.912,1.921-1.368,4.729-1.368,8.425c0,3.312,0.72,5.748,2.16,7.308c1.439,1.561,3.744,2.34,6.912,2.34
		c1.631,0,3.239-0.288,4.823-0.864v9.721c-2.159,0.671-4.584,1.008-7.271,1.008C151.028,59.4,146.145,57.78,142.809,54.54z"/>
	<path class="st0" d="M195.478,58.572c-3.024-0.551-5.4-1.355-7.128-2.412v-9.504c2.063,1.2,4.428,2.16,7.092,2.88
		s5.051,1.08,7.164,1.08c2.207,0,3.839-0.203,4.896-0.612c1.056-0.407,1.584-1.115,1.584-2.124c0-0.911-0.504-1.631-1.512-2.159
		s-2.88-1.225-5.616-2.089l-2.231-0.72c-4.081-1.343-7.068-2.916-8.965-4.716s-2.844-4.284-2.844-7.452
		c0-3.84,1.536-6.804,4.608-8.892c3.071-2.088,7.175-3.132,12.312-3.132c2.88,0,5.663,0.288,8.353,0.863
		c2.688,0.576,4.848,1.321,6.479,2.232v9.647c-1.536-1.055-3.468-1.919-5.796-2.592c-2.328-0.671-4.548-1.008-6.66-1.008
		c-4.224,0-6.336,0.961-6.336,2.88c0,0.961,0.54,1.704,1.62,2.232s2.868,1.151,5.364,1.872l2.736,0.863
		c4.367,1.345,7.367,2.988,9,4.933c1.631,1.943,2.447,4.428,2.447,7.452c0,3.408-1.476,6.145-4.428,8.208
		c-2.952,2.063-7.356,3.096-13.212,3.096C201.477,59.4,198.501,59.124,195.478,58.572z"/>
	<path class="st0" d="M186.116,7.561h22.968V0h11.448v15.48h-34.416V7.561z"/>
	<path class="st0" d="M231.224,56.196c-3.721-2.135-5.58-5.292-5.58-9.468c0-1.824,0.456-3.443,1.368-4.86
		c0.911-1.415,2.16-2.508,3.744-3.275c-1.44-0.816-2.604-1.98-3.492-3.492c-0.889-1.513-1.332-3.156-1.332-4.933
		c0-3.456,1.26-6.228,3.78-8.315c2.52-2.088,6.18-3.132,10.979-3.132c1.392,0,2.832,0.107,4.32,0.323
		c1.487,0.217,2.615,0.444,3.384,0.685v9.216c-0.673-0.335-1.476-0.6-2.412-0.792c-0.936-0.191-1.788-0.288-2.556-0.288
		c-2.977,0-4.464,1.104-4.464,3.313c0,2.304,1.512,3.455,4.536,3.455h4.896v7.921H243.5c-3.217,0-4.824,1.224-4.824,3.672
		c0,2.784,2.52,4.176,7.56,4.176c2.976,0,5.159-0.612,6.553-1.836c1.392-1.225,2.088-3.061,2.088-5.508V19.729h12.672v23.256
		c0,2.736-0.72,5.353-2.16,7.848c-1.44,2.497-3.744,4.549-6.912,6.156s-7.248,2.412-12.24,2.412
		C239.947,59.4,234.943,58.332,231.224,56.196z"/>
	<path class="st0" d="M291.739,58.068c-2.209-0.888-4.104-2.124-5.688-3.708v3.96h-12.023v-38.52h12.672V45
		c0.911,1.537,1.991,2.677,3.24,3.42c1.247,0.745,2.76,1.116,4.536,1.116c2.063,0,3.646-0.504,4.752-1.512
		c1.104-1.008,1.655-2.521,1.655-4.536V19.801h12.672V44.28c0,2.88-0.575,5.461-1.728,7.74c-1.152,2.28-2.856,4.08-5.112,5.399
		c-2.257,1.32-4.968,1.98-8.136,1.98C296.227,59.4,293.946,58.956,291.739,58.068z"/>
	<path class="st0" d="M317.875,19.801h12.672l4.608,21.239l5.832-21.239h9l5.832,21.239l4.607-21.239h12.672l-10.728,38.52h-10.8
		l-6.12-21.528l-6.048,21.528h-10.801L317.875,19.801z"/>
	<path class="st0" d="M383.539,58.572c-3.024-0.551-5.4-1.355-7.128-2.412v-9.504c2.063,1.2,4.428,2.16,7.092,2.88
		s5.051,1.08,7.164,1.08c2.207,0,3.839-0.203,4.896-0.612c1.056-0.407,1.584-1.115,1.584-2.124c0-0.911-0.504-1.631-1.512-2.159
		s-2.88-1.225-5.616-2.089l-2.231-0.72c-4.081-1.343-7.068-2.916-8.965-4.716s-2.844-4.284-2.844-7.452
		c0-3.84,1.536-6.804,4.608-8.892c3.071-2.088,7.175-3.132,12.312-3.132c2.88,0,5.663,0.288,8.353,0.863
		c2.688,0.576,4.848,1.321,6.479,2.232v9.647c-1.536-1.055-3.468-1.919-5.796-2.592c-2.328-0.671-4.548-1.008-6.66-1.008
		c-4.224,0-6.336,0.961-6.336,2.88c0,0.961,0.54,1.704,1.62,2.232s2.868,1.151,5.364,1.872l2.736,0.863
		c4.367,1.345,7.367,2.988,9,4.933c1.631,1.943,2.447,4.428,2.447,7.452c0,3.408-1.476,6.145-4.428,8.208
		c-2.952,2.063-7.356,3.096-13.212,3.096C389.538,59.4,386.563,59.124,383.539,58.572z"/>
	<path class="st0" d="M389.874,10.801c0-0.479-0.096-0.828-0.288-1.045c-0.191-0.216-0.551-0.323-1.08-0.323h-3.456V0.937h7.488
		c3.505,0,5.256,1.512,5.256,4.536v2.016h14.256v7.992h-22.176V10.801z"/>
	<path class="st0" d="M421.807,58.429c-3.289-0.648-5.988-1.5-8.101-2.557V35.568h19.152v8.496h-6.912v4.464
		c0.623,0.288,1.464,0.528,2.52,0.72c1.056,0.192,2.136,0.288,3.24,0.288c3.359,0,5.892-0.899,7.597-2.7
		c1.703-1.8,2.556-4.451,2.556-7.956c0-3.646-0.997-6.274-2.988-7.884c-1.992-1.607-5.412-2.412-10.26-2.412
		c-2.496,0-5.076,0.241-7.74,0.721c-2.664,0.48-4.86,1.151-6.588,2.016v-9.792c1.968-0.864,4.487-1.548,7.56-2.052
		c3.071-0.504,6.192-0.756,9.36-0.756c7.632,0,13.487,1.752,17.568,5.256c4.079,3.504,6.12,8.472,6.12,14.903
		c0,4.225-0.9,7.873-2.7,10.944c-1.8,3.072-4.44,5.437-7.92,7.092c-3.481,1.656-7.668,2.484-12.564,2.484
		C428.395,59.4,425.094,59.076,421.807,58.429z"/>
	<path class="st0" d="M477.642,58.068c-2.209-0.888-4.104-2.124-5.688-3.708v3.96H459.93v-38.52h12.672V45
		c0.911,1.537,1.991,2.677,3.24,3.42c1.247,0.745,2.76,1.116,4.536,1.116c2.063,0,3.646-0.504,4.752-1.512
		c1.104-1.008,1.655-2.521,1.655-4.536V19.801h12.672V44.28c0,2.88-0.575,5.461-1.728,7.74c-1.152,2.28-2.856,4.08-5.112,5.399
		c-2.257,1.32-4.968,1.98-8.136,1.98C482.129,59.4,479.849,58.956,477.642,58.068z"/>
	<path class="st1" d="M512.058,58.572c-3.024-0.551-5.4-1.355-7.128-2.412v-9.504c2.063,1.2,4.428,2.16,7.092,2.88
		s5.051,1.08,7.164,1.08c2.207,0,3.839-0.203,4.896-0.612c1.056-0.407,1.584-1.115,1.584-2.124c0-0.911-0.504-1.631-1.512-2.159
		s-2.88-1.225-5.616-2.089l-2.231-0.72c-4.081-1.343-7.068-2.916-8.965-4.716s-2.844-4.284-2.844-7.452
		c0-3.84,1.536-6.804,4.608-8.892c3.071-2.088,7.175-3.132,12.312-3.132c2.88,0,5.663,0.288,8.353,0.863
		c2.688,0.576,4.848,1.321,6.479,2.232v9.647c-1.536-1.055-3.468-1.919-5.796-2.592c-2.328-0.671-4.548-1.008-6.66-1.008
		c-4.224,0-6.336,0.961-6.336,2.88c0,0.961,0.54,1.704,1.62,2.232s2.868,1.151,5.364,1.872l2.736,0.863
		c4.367,1.345,7.367,2.988,9,4.933c1.631,1.943,2.447,4.428,2.447,7.452c0,3.408-1.476,6.145-4.428,8.208
		c-2.952,2.063-7.356,3.096-13.212,3.096C518.057,59.4,515.081,59.124,512.058,58.572z"/>
	<path class="st1" d="M514.72,8.496V2.088h11.304v3.816c0,0.624,0.133,1.057,0.396,1.296c0.265,0.241,0.709,0.36,1.332,0.36h15.696
		v7.92h-21.385C517.168,15.48,514.72,13.152,514.72,8.496z"/>
	<path class="st1" d="M553.312,57.276c-3.072-1.415-5.448-3.396-7.128-5.94c-1.681-2.543-2.52-5.423-2.52-8.64V19.801h12.672v21.815
		c0,2.592,0.612,4.561,1.836,5.904s3.18,2.016,5.868,2.016c5.136,0,7.704-2.639,7.704-7.92V19.801h12.672v22.896
		c0,3.217-0.841,6.097-2.521,8.64c-1.681,2.545-4.057,4.525-7.128,5.94c-3.072,1.415-6.648,2.124-10.728,2.124
		C559.959,59.4,556.383,58.691,553.312,57.276z"/>
	<path class="st1" d="M608.607,58.068c-2.209-0.888-4.104-2.124-5.688-3.708v3.96h-12.023v-38.52h12.672V45
		c0.911,1.537,1.991,2.677,3.24,3.42c1.247,0.745,2.76,1.116,4.536,1.116c2.063,0,3.646-0.504,4.752-1.512
		c1.104-1.008,1.655-2.521,1.655-4.536V19.801h12.672V44.28c0,2.88-0.575,5.461-1.728,7.74c-1.152,2.28-2.856,4.08-5.112,5.399
		c-2.257,1.32-4.968,1.98-8.136,1.98C613.095,59.4,610.814,58.956,608.607,58.068z"/>
	<path class="st1" d="M595.936,7.561h12.815V0h8.712v7.561h4.176V0h8.713v15.48h-34.416V7.561z"/>
	<path class="st1" d="M643.563,58.429c-3.289-0.648-5.988-1.5-8.101-2.557V35.568h19.152v8.496h-6.912v4.464
		c0.623,0.288,1.464,0.528,2.52,0.72c1.056,0.192,2.136,0.288,3.24,0.288c3.359,0,5.892-0.899,7.597-2.7
		c1.703-1.8,2.556-4.451,2.556-7.956c0-3.646-0.997-6.274-2.988-7.884c-1.992-1.607-5.412-2.412-10.26-2.412
		c-2.496,0-5.076,0.241-7.74,0.721c-2.664,0.48-4.86,1.151-6.588,2.016v-9.792c1.968-0.864,4.487-1.548,7.56-2.052
		c3.071-0.504,6.192-0.756,9.36-0.756c7.632,0,13.487,1.752,17.568,5.256c4.079,3.504,6.12,8.472,6.12,14.903
		c0,4.225-0.9,7.873-2.7,10.944c-1.8,3.072-4.44,5.437-7.92,7.092c-3.481,1.656-7.668,2.484-12.564,2.484
		C650.151,59.4,646.851,59.076,643.563,58.429z"/>
	<path class="st1" d="M688.347,58.429c-3.289-0.648-5.988-1.5-8.101-2.557V35.568h19.152v8.496h-6.912v4.464
		c0.623,0.288,1.464,0.528,2.52,0.72c1.056,0.192,2.136,0.288,3.24,0.288c3.359,0,5.892-0.899,7.597-2.7
		c1.703-1.8,2.556-4.451,2.556-7.956c0-3.646-0.997-6.274-2.988-7.884c-1.992-1.607-5.412-2.412-10.26-2.412
		c-2.496,0-5.076,0.241-7.74,0.721c-2.664,0.48-4.86,1.151-6.588,2.016v-9.792c1.968-0.864,4.487-1.548,7.56-2.052
		c3.071-0.504,6.192-0.756,9.36-0.756c7.632,0,13.487,1.752,17.568,5.256c4.079,3.504,6.12,8.472,6.12,14.903
		c0,4.225-0.9,7.873-2.7,10.944c-1.8,3.072-4.44,5.437-7.92,7.092c-3.481,1.656-7.668,2.484-12.564,2.484
		C694.935,59.4,691.634,59.076,688.347,58.429z"/>
	<path class="st1" d="M708.686,71.712c0-0.912-0.168-1.548-0.504-1.907c-0.335-0.36-0.96-0.54-1.872-0.54h-2.232v-7.92h8.353
		c2.735,0,4.68,0.623,5.832,1.872c1.151,1.247,1.728,3.239,1.728,5.976v9.216h-11.304V71.712z"/>
	<path class="st1" d="M726.47,19.801h12.023v4.031c1.632-1.631,3.588-2.891,5.868-3.779c2.279-0.888,4.572-1.332,6.876-1.332
		c4.896,0,8.579,1.296,11.052,3.888c2.472,2.592,3.708,6.048,3.708,10.368V58.32h-12.672V34.416c0-3.888-1.992-5.832-5.976-5.832
		c-1.729,0-3.301,0.373-4.716,1.116c-1.417,0.745-2.581,1.885-3.492,3.42v25.2H726.47V19.801z"/>
	<path class="st1" d="M774.277,35.856l-3.6-6.264c5.855-7.248,13.319-10.872,22.392-10.872c6.383,0,11.304,1.403,14.76,4.212
		c3.456,2.808,5.185,6.685,5.185,11.628v23.76h-12.673V35.568c0-4.655-2.424-6.984-7.271-6.984c-3.553,0-6.48,0.984-8.784,2.952
		l2.664,4.536V58.32h-12.672V35.856z"/>
	<path class="st1" d="M817.693,49.177h2.951c1.104,0,1.824-0.181,2.16-0.54c0.336-0.36,0.504-1.092,0.504-2.196V35.856l-5.04-6.264
		c2.64-3.456,5.856-6.132,9.648-8.028c3.791-1.896,8.063-2.844,12.816-2.844c6.383,0,11.304,1.403,14.76,4.212
		c3.456,2.808,5.184,6.685,5.184,11.628v23.76h-12.672V35.568c0-4.655-2.448-6.984-7.344-6.984c-3.265,0-6.073,0.937-8.424,2.809
		l3.743,4.68v13.104c0,2.832-0.756,5.064-2.268,6.695c-1.512,1.633-3.685,2.448-6.516,2.448h-9.504V49.177z"/>
	<path class="st1" d="M838.212,8.496V2.088h11.304v3.816c0,0.624,0.133,1.057,0.396,1.296c0.265,0.241,0.709,0.36,1.332,0.36h15.696
		v7.92h-21.385C840.66,15.48,838.212,13.152,838.212,8.496z"/>
	<path class="st1" d="M871.296,56.196c-3.721-2.135-5.58-5.292-5.58-9.468c0-1.824,0.456-3.443,1.368-4.86
		c0.911-1.415,2.16-2.508,3.744-3.275c-1.44-0.816-2.604-1.98-3.492-3.492c-0.889-1.513-1.332-3.156-1.332-4.933
		c0-3.456,1.26-6.228,3.78-8.315c2.52-2.088,6.18-3.132,10.979-3.132c1.392,0,2.832,0.107,4.32,0.323
		c1.487,0.217,2.615,0.444,3.384,0.685v9.216c-0.673-0.335-1.476-0.6-2.412-0.792c-0.936-0.191-1.788-0.288-2.556-0.288
		c-2.977,0-4.464,1.104-4.464,3.313c0,2.304,1.512,3.455,4.536,3.455h4.896v7.921h-4.896c-3.217,0-4.824,1.224-4.824,3.672
		c0,2.784,2.52,4.176,7.56,4.176c2.976,0,5.159-0.612,6.553-1.836c1.392-1.225,2.088-3.061,2.088-5.508V19.729h12.672v23.256
		c0,2.736-0.72,5.353-2.16,7.848c-1.44,2.497-3.744,4.549-6.912,6.156S891.3,59.4,886.308,59.4
		C880.02,59.4,875.016,58.332,871.296,56.196z"/>
</g>
</svg>