<!-- Generator: Adobe Illustrator 21.1.0, SVG Export Plug-In  -->
<svg version="1.1"
	 xmlns="http://www.w3.org/2000/svg" xmlns:xlink="http://www.w3.org/1999/xlink" xmlns:a="http://ns.adobe.com/AdobeSVGViewerExtensions/3.0/"
	 x="0px" y="0px" width="406.244px" height="64.55px" viewBox="0 0 406.244 64.55"
	 style="enable-background:new 0 0 406.244 64.55;" xml:space="preserve">
<style type="text/css">
	.st0{fill:#FFFFFF;}
</style>
<defs>
</defs>
<g>
	<path class="st0" d="M5.15,51.2C3.083,50.734,1.366,50.084,0,49.25v-14h12v5.15H6.35v5.55c1.233,0.667,2.934,1,5.101,1
		c2.933,0,5.149-0.8,6.649-2.4s2.25-3.933,2.25-7c0-2.1-0.333-3.8-1-5.1c-0.667-1.3-1.767-2.266-3.3-2.9
		c-1.533-0.633-3.6-0.95-6.2-0.95c-1.699,0-3.425,0.175-5.175,0.525S1.467,29.984,0.3,30.65V25.7
		c1.333-0.666,2.925-1.175,4.775-1.525c1.85-0.35,3.808-0.525,5.875-0.525c5.066,0,8.982,1.208,11.75,3.625
		c2.767,2.417,4.149,5.842,4.149,10.275c0,4.434-1.324,7.934-3.975,10.5c-2.65,2.567-6.459,3.85-11.425,3.85
		C9.316,51.9,7.217,51.667,5.15,51.2z"/>
	<path class="st0" d="M20.3,59.4c0-0.6-0.101-1.017-0.3-1.25c-0.2-0.233-0.601-0.35-1.2-0.35h-1.75v-4.05h4.649
		c1.668,0,2.801,0.308,3.4,0.925c0.6,0.617,0.9,1.742,0.9,3.375v6.5h-5.7V59.4z"/>
	<path class="st0" d="M31.85,24.4h6.1v3.3c1.267-1.333,2.742-2.341,4.426-3.025c1.683-0.683,3.375-1.025,5.074-1.025
		c3.301,0,5.816,0.925,7.551,2.775c1.732,1.85,2.6,4.225,2.6,7.125v17.6h-6.35v-17.3c0-3.5-1.867-5.25-5.601-5.25
		c-3.233,0-5.717,1.367-7.45,4.1v18.45h-6.35V24.4z"/>
	<path class="st0" d="M65.1,34.851l-2.5-4.15c1.833-2.3,3.941-4.05,6.325-5.25c2.383-1.2,5.142-1.8,8.274-1.8
		c4.167,0,7.358,0.934,9.575,2.8c2.217,1.867,3.325,4.45,3.325,7.75v16.95h-6.35V34.7c0-2.066-0.551-3.6-1.65-4.6
		s-2.733-1.5-4.9-1.5c-1.633,0-3.074,0.233-4.324,0.7c-1.25,0.467-2.409,1.234-3.476,2.3l2.05,3.3v16.25H65.1V34.851z"/>
	<path class="st0" d="M95.099,45.851h1.95c0.866,0,1.458-0.167,1.774-0.5c0.316-0.333,0.476-0.95,0.476-1.85v-8.65l-3.5-4.15
		c3.566-4.7,8.45-7.05,14.649-7.05c4.133,0,7.309,0.934,9.525,2.8c2.217,1.867,3.325,4.45,3.325,7.75v16.95h-6.351V34.7
		c0-2.066-0.55-3.6-1.649-4.6c-1.101-1-2.733-1.5-4.9-1.5c-1.6,0-3.009,0.233-4.225,0.7c-1.218,0.467-2.358,1.167-3.425,2.1
		l2.899,3.45V45.5c0,1.767-0.475,3.15-1.425,4.15s-2.292,1.5-4.025,1.5h-5.1V45.851z"/>
	<path class="st0" d="M109.772,19.55c-0.716-0.8-1.074-2-1.074-3.6v-2.9h5.699v2.3c0,0.533,0.101,0.892,0.301,1.075
		c0.199,0.184,0.566,0.275,1.1,0.275h11.9v4.05h-14.5C111.632,20.75,110.49,20.351,109.772,19.55z"/>
	<path class="st0" d="M131.897,49.601c-2.399-1.533-3.6-3.7-3.6-6.5c0-1.367,0.4-2.6,1.2-3.7s1.833-1.866,3.1-2.3
		c-1.2-0.566-2.175-1.383-2.925-2.45c-0.75-1.066-1.125-2.267-1.125-3.6c0-2.233,0.767-4.025,2.3-5.375s3.8-2.025,6.8-2.025
		c0.934,0,1.833,0.059,2.7,0.175c0.866,0.117,1.55,0.259,2.05,0.425v4.95c-0.434-0.2-0.992-0.35-1.675-0.45
		c-0.684-0.1-1.292-0.15-1.825-0.15c-2.566,0-3.85,0.95-3.85,2.85c0,1.034,0.316,1.8,0.95,2.3c0.633,0.5,1.649,0.75,3.05,0.75h3.35
		v5.15h-3.35c-2.834,0-4.25,1.15-4.25,3.45c0,1.2,0.592,2.142,1.775,2.825c1.183,0.684,2.808,1.025,4.875,1.025
		c2.6,0,4.508-0.533,5.725-1.6c1.217-1.066,1.825-2.633,1.825-4.7v-16.3h6.35v16.2c0,1.9-0.458,3.708-1.375,5.425
		s-2.417,3.133-4.5,4.25c-2.083,1.116-4.759,1.675-8.024,1.675C137.48,51.9,134.298,51.134,131.897,49.601z"/>
	<path class="st0" d="M179.347,24.4h6.35v10.7l11.551-10.7h7.3l-7.3,6.75c2.699,0.7,4.582,1.833,5.649,3.4
		c1.066,1.567,1.601,3.65,1.601,6.25v10.35h-6.351v-9.9c0-1.9-0.342-3.333-1.024-4.3c-0.684-0.966-1.926-1.65-3.726-2.05l-7.7,7.15
		v9.1h-6.35V24.4z"/>
	<path class="st0" d="M214.322,51.3c-1.95-0.4-3.476-1-4.575-1.8v-4.95c1.466,0.867,3.091,1.517,4.875,1.95
		c1.782,0.434,3.425,0.65,4.925,0.65c2,0,3.441-0.2,4.325-0.6c0.883-0.4,1.325-1.15,1.325-2.25c0-0.766-0.234-1.375-0.7-1.825
		c-0.468-0.45-1.101-0.825-1.9-1.125c-0.8-0.3-2.3-0.783-4.5-1.45c-2.867-0.9-5.009-1.983-6.425-3.25
		c-1.417-1.267-2.125-2.983-2.125-5.15c0-2.5,1-4.433,3-5.8c2-1.366,4.7-2.05,8.1-2.05c1.801,0,3.525,0.192,5.176,0.575
		c1.649,0.383,3.008,0.892,4.074,1.525v5.2c-1.1-0.7-2.425-1.266-3.975-1.7c-1.55-0.433-3.108-0.65-4.675-0.65
		c-3.567,0-5.351,0.967-5.351,2.9c0,0.7,0.217,1.267,0.65,1.7c0.433,0.434,1.017,0.792,1.75,1.075
		c0.732,0.284,1.85,0.659,3.35,1.125l1.65,0.5c2.133,0.667,3.791,1.384,4.975,2.15c1.184,0.767,2.017,1.65,2.5,2.65
		s0.726,2.234,0.726,3.7c0,2.233-0.95,4.042-2.851,5.425c-1.899,1.383-4.75,2.075-8.55,2.075
		C218.197,51.9,216.271,51.7,214.322,51.3z"/>
	<path class="st0" d="M208.296,16.7h9.7v-5.4h4.45v5.4h3.8v-5.4h4.4v9.45h-22.351V16.7z"/>
	<path class="st0" d="M240.646,51.2c-2.067-0.466-3.784-1.116-5.15-1.95v-14h12v5.15h-5.65v5.55c1.233,0.667,2.934,1,5.101,1
		c2.933,0,5.149-0.8,6.649-2.4s2.25-3.933,2.25-7c0-2.1-0.333-3.8-1-5.1c-0.667-1.3-1.767-2.266-3.3-2.9
		c-1.533-0.633-3.6-0.95-6.2-0.95c-1.699,0-3.425,0.175-5.175,0.525s-3.208,0.858-4.375,1.525V25.7
		c1.333-0.666,2.925-1.175,4.775-1.525c1.85-0.35,3.808-0.525,5.875-0.525c5.066,0,8.982,1.208,11.75,3.625
		c2.767,2.417,4.149,5.842,4.149,10.275c0,4.434-1.324,7.934-3.975,10.5c-2.65,2.567-6.459,3.85-11.425,3.85
		C244.813,51.9,242.713,51.667,240.646,51.2z"/>
	<path class="st0" d="M272.146,50.575c-1.567-0.883-2.759-2.1-3.575-3.65c-0.816-1.55-1.225-3.275-1.225-5.175V24.4h6.35v17.05
		c0,3.667,1.95,5.5,5.851,5.5c3.066,0,5.466-1.366,7.2-4.1V24.4h6.35v26.75h-6.1v-3.3c-1.268,1.333-2.709,2.342-4.325,3.025
		c-1.617,0.683-3.259,1.025-4.925,1.025C275.578,51.9,273.712,51.458,272.146,50.575z"/>
	<path class="st0" d="M285.421,19.9c-1.116-1.1-1.675-2.45-1.675-4.05c0-1.566,0.566-2.917,1.699-4.05
		c1.134-1.133,2.484-1.7,4.051-1.7s2.908,0.567,4.024,1.7c1.117,1.134,1.675,2.484,1.675,4.05c0,1.6-0.558,2.95-1.675,4.05
		c-1.116,1.1-2.458,1.65-4.024,1.65C287.896,21.55,286.538,21,285.421,19.9z M290.945,17.425c0.434-0.45,0.65-0.958,0.65-1.525
		c0-0.566-0.208-1.075-0.625-1.525c-0.416-0.45-0.908-0.675-1.475-0.675c-0.601,0-1.108,0.217-1.525,0.65
		c-0.416,0.434-0.625,0.95-0.625,1.55c0,0.567,0.209,1.075,0.625,1.525c0.417,0.45,0.925,0.675,1.525,0.675
		C290.029,18.101,290.513,17.875,290.945,17.425z"/>
	<path class="st0" d="M283.996,5.15c0-0.367-0.066-0.625-0.2-0.775c-0.133-0.15-0.4-0.225-0.8-0.225h-2.101V0h4.05
		c2.034,0,3.051,0.883,3.051,2.65V4.1h8.6v3.8h-12.6V5.15z"/>
	<path class="st0" d="M307.695,34.05c0-1.966-0.392-3.366-1.175-4.2c-0.783-0.833-2.192-1.25-4.225-1.25
		c-1.867,0-3.768,0.483-5.7,1.45v-4.95c0.8-0.4,1.857-0.742,3.175-1.025c1.316-0.283,2.608-0.425,3.875-0.425
		c3.433,0,6.025,0.934,7.775,2.8c1.75,1.867,2.625,4.534,2.625,8v16.7h-6.351V34.05z"/>
	<path class="st0" d="M320.045,24.4h6.1v3.3c1.267-1.333,2.742-2.341,4.426-3.025c1.683-0.683,3.375-1.025,5.074-1.025
		c3.301,0,5.816,0.925,7.551,2.775c1.732,1.85,2.6,4.225,2.6,7.125v17.6h-6.35v-17.3c0-3.5-1.867-5.25-5.601-5.25
		c-3.233,0-5.717,1.367-7.45,4.1v18.45h-6.35V24.4z"/>
	<path class="st0" d="M339.495,12.15h6.35v8.6h-6.35V12.15z"/>
	<path class="st0" d="M350.795,49.75v-5c2.066,1.467,4.95,2.2,8.65,2.2c3.032,0,5.383-0.758,7.05-2.275
		c1.666-1.516,2.5-3.808,2.5-6.875c0-3.066-0.834-5.366-2.5-6.9c-1.667-1.533-4.018-2.3-7.05-2.3c-3.5,0-6.334,0.733-8.5,2.2v-5
		c2.3-1.433,5.566-2.15,9.8-2.15c4.6,0,8.208,1.242,10.825,3.725c2.616,2.483,3.925,5.958,3.925,10.425
		c0,4.434-1.317,7.892-3.95,10.375c-2.634,2.484-6.233,3.725-10.8,3.725C356.378,51.9,353.062,51.183,350.795,49.75z"/>
	<path class="st0" d="M390.919,50.875c-1.617-0.683-3.059-1.691-4.325-3.025v3.3h-6.1V24.4h6.35v18.45
		c1.733,2.733,4.133,4.1,7.2,4.1c3.933,0,5.9-1.833,5.9-5.5V24.4h6.3v17.35c0,1.9-0.408,3.625-1.225,5.175
		c-0.817,1.55-2.009,2.767-3.575,3.65c-1.567,0.883-3.434,1.325-5.601,1.325C394.177,51.9,392.535,51.558,390.919,50.875z"/>
</g>
</svg>