<!-- Generator: Adobe Illustrator 21.1.0, SVG Export Plug-In  -->
<svg version="1.1"
	 xmlns="http://www.w3.org/2000/svg" xmlns:xlink="http://www.w3.org/1999/xlink" xmlns:a="http://ns.adobe.com/AdobeSVGViewerExtensions/3.0/"
	 x="0px" y="0px" width="302.816px" height="123.24px" viewBox="0 0 302.816 123.24"
	 style="enable-background:new 0 0 302.816 123.24;" xml:space="preserve">
<style type="text/css">
	.st0{fill:#B3473B;}
</style>
<defs>
</defs>
<g>
	<g>
		<path class="st0" d="M75.419,32.73c-2.101-1.78-3.149-4.37-3.149-7.771c0-3.479,1.189-6.189,3.569-8.13
			c2.38-1.939,5.63-2.91,9.75-2.91c1.76,0,3.511,0.16,5.25,0.48c1.74,0.32,3.249,0.76,4.53,1.319V14.7c0-1.84-0.66-3.21-1.98-4.11
			c-1.32-0.899-3.5-1.35-6.539-1.35c-1.961,0-3.922,0.21-5.881,0.63c-1.96,0.42-3.68,0.97-5.16,1.649V3.84
			c1.359-0.68,3.22-1.239,5.58-1.68c2.359-0.439,4.82-0.66,7.381-0.66c2.64,0,4.859,0.3,6.66,0.9L97.409,0h11.399l-5.819,6.66
			c0.999,0.96,1.739,2.211,2.22,3.75c0.48,1.54,0.721,3.149,0.721,4.83V34.5H95.369V22.98c-2.08-1.08-4.439-1.62-7.08-1.62
			c-1.8,0-3.111,0.29-3.93,0.87c-0.82,0.58-1.23,1.49-1.23,2.729c0,2.28,1.539,3.42,4.62,3.42c1.2,0,2.259-0.199,3.181-0.6v6.779
			c-1.681,0.561-4.001,0.841-6.961,0.841C80.369,35.4,77.52,34.51,75.419,32.73z"/>
		<path class="st0" d="M121.109,15.06c0-1.8-0.411-3.14-1.23-4.02c-0.82-0.88-2.23-1.32-4.23-1.32c-1.96,0-3.939,0.501-5.939,1.5
			V3.3c0.92-0.479,2.209-0.899,3.869-1.26s3.25-0.54,4.771-0.54c4.319,0,7.62,1.131,9.899,3.39c2.281,2.261,3.42,5.53,3.42,9.811
			v19.8h-10.559V15.06z"/>
		<path class="st0" d="M138.958,32.49c-1.26-1.34-1.89-3.189-1.89-5.55V2.4h10.56v22.02c0,0.921,0.181,1.561,0.54,1.92
			c0.36,0.36,0.98,0.54,1.86,0.54h2.1v7.62h-7.8C142.008,34.5,140.219,33.831,138.958,32.49z"/>
		<path class="st0" d="M156.027,2.4h10.561v10.26l10.5-10.26h12l-8.52,8.34c3.039,0.92,5.168,2.271,6.389,4.05
			c1.221,1.78,1.83,4.17,1.83,7.17V34.5h-10.56V22.98c0-1.76-0.29-3.07-0.87-3.931c-0.58-0.859-1.65-1.489-3.21-1.89l-7.56,7.08
			V34.5h-10.561V2.4z"/>
		<path class="st0" d="M197.156,31.35c-2.78-2.699-4.17-6.77-4.17-12.21c0-3.639,0.561-6.789,1.681-9.449
			c1.119-2.66,2.67-4.689,4.649-6.091c1.98-1.399,4.189-2.1,6.631-2.1c1.479,0,2.779,0.27,3.899,0.81s2.02,1.251,2.7,2.131
			c1.439-1.96,3.939-2.94,7.5-2.94c3.24,0,5.799,0.95,7.68,2.85c1.88,1.9,2.82,4.371,2.82,7.41V34.5h-10.561V12.96
			c0-1.08-0.18-1.89-0.539-2.43c-0.36-0.54-0.961-0.811-1.801-0.811c-1.521,0-2.48,0.98-2.88,2.94h-4.26
			c-0.28-1.96-1.12-2.94-2.521-2.94c-1.24,0-2.24,0.801-3,2.4c-0.76,1.601-1.14,3.94-1.14,7.02c0,2.761,0.601,4.791,1.8,6.091
			c1.2,1.3,3.12,1.949,5.76,1.949c1.359,0,2.701-0.239,4.021-0.72v8.1c-1.8,0.561-3.82,0.841-6.06,0.841
			C204.006,35.4,199.937,34.05,197.156,31.35z"/>
		<path class="st0" d="M221.127,45.66c0-0.761-0.141-1.29-0.42-1.59c-0.279-0.301-0.801-0.45-1.561-0.45h-1.859V37.02h6.959
			c2.28,0,3.9,0.52,4.86,1.561c0.96,1.04,1.44,2.7,1.44,4.979v7.681h-9.42V45.66z"/>
		<path d="M7.92,105.9c-2.441-1-4.301-2.38-5.58-4.141c-1.281-1.76-1.92-3.759-1.92-6V94.2c0-1.479,0.26-2.77,0.779-3.87
			c0.52-1.1,1.26-2.35,2.221-3.75c0.6-0.84,1.039-1.51,1.32-2.01c0.279-0.5,0.42-0.99,0.42-1.471c0-1.039-0.621-1.56-1.861-1.56H0
			V74.4h9.899c1.88,0,3.36,0.52,4.44,1.56c1.08,1.041,1.619,2.4,1.619,4.08c0,1.2-0.22,2.301-0.66,3.3
			c-0.439,1-1.079,2.101-1.92,3.3c-0.8,1.32-1.4,2.411-1.799,3.271c-0.4,0.86-0.601,1.83-0.601,2.91v1.08
			c0,1.72,0.479,3.029,1.44,3.93c0.959,0.9,2.379,1.35,4.26,1.35c1.959,0,3.39-0.489,4.29-1.47c0.899-0.979,1.35-2.33,1.35-4.05
			V74.4h10.56V93c0,4.48-1.37,8.001-4.109,10.56c-2.74,2.561-6.771,3.841-12.09,3.841C13.279,107.4,10.359,106.899,7.92,105.9z"/>
		<path d="M43.829,106.59c-2.74-0.54-4.99-1.25-6.75-2.13V87.54h15.96v7.08h-5.76v3.72c0.52,0.24,1.22,0.44,2.1,0.601
			c0.879,0.16,1.779,0.239,2.7,0.239c2.8,0,4.909-0.75,6.33-2.25c1.419-1.5,2.13-3.709,2.13-6.63c0-3.039-0.83-5.229-2.49-6.569
			s-4.51-2.011-8.55-2.011c-2.08,0-4.229,0.201-6.45,0.601c-2.22,0.4-4.05,0.96-5.49,1.68v-8.16c1.641-0.72,3.74-1.29,6.301-1.71
			c2.559-0.42,5.16-0.63,7.8-0.63c6.36,0,11.239,1.461,14.64,4.38c3.399,2.921,5.1,7.061,5.1,12.42c0,3.521-0.75,6.561-2.25,9.12
			c-1.5,2.561-3.699,4.53-6.6,5.91s-6.39,2.07-10.47,2.07C49.319,107.4,46.568,107.13,43.829,106.59z"/>
		<path d="M74.398,78.42h10.5l6.601,20.4c2.521,0,4.479-0.83,5.88-2.49c1.4-1.659,2.1-4.01,2.1-7.05c0-5.04-1.94-7.561-5.82-7.561
			c-1.319,0-2.52,0.201-3.6,0.601V74.4c0.76-0.279,1.689-0.5,2.791-0.66c1.1-0.159,2.168-0.24,3.209-0.24
			c4.84,0,8.43,1.36,10.771,4.08c2.34,2.721,3.51,6.62,3.51,11.7c0,3.6-0.801,6.7-2.399,9.3c-1.602,2.601-3.741,4.57-6.42,5.91
			c-2.682,1.341-5.641,2.01-8.881,2.01h-9.18L74.398,78.42z"/>
		<path d="M120.088,106.59c-2.74-0.54-4.99-1.25-6.75-2.13V87.54h15.96v7.08h-5.76v3.72c0.519,0.24,1.22,0.44,2.1,0.601
			s1.78,0.239,2.7,0.239c2.799,0,4.91-0.75,6.33-2.25s2.13-3.709,2.13-6.63c0-3.039-0.831-5.229-2.489-6.569
			c-1.661-1.34-4.512-2.011-8.551-2.011c-2.08,0-4.23,0.201-6.449,0.601c-2.221,0.4-4.051,0.96-5.49,1.68v-8.16
			c1.639-0.72,3.739-1.29,6.299-1.71c2.561-0.42,5.16-0.63,7.801-0.63c6.359,0,11.24,1.461,14.641,4.38
			c3.398,2.921,5.1,7.061,5.1,12.42c0,3.521-0.75,6.561-2.25,9.12c-1.5,2.561-3.701,4.53-6.6,5.91
			c-2.901,1.38-6.391,2.07-10.471,2.07C125.578,107.4,122.827,107.13,120.088,106.59z"/>
		<path d="M137.037,117.66c0-0.761-0.139-1.29-0.42-1.59c-0.279-0.301-0.799-0.45-1.56-0.45h-1.86v-6.601h6.961
			c2.279,0,3.899,0.52,4.859,1.561c0.96,1.04,1.439,2.7,1.439,4.979v7.681h-9.42V117.66z"/>
		<path d="M151.857,74.4h10.021v3.359c1.359-1.359,2.989-2.409,4.89-3.149c1.899-0.74,3.811-1.11,5.73-1.11
			c4.08,0,7.148,1.08,9.209,3.24s3.091,5.04,3.091,8.64v21.12h-10.56V86.58c0-3.24-1.66-4.86-4.98-4.86
			c-1.439,0-2.75,0.311-3.93,0.931c-1.181,0.62-2.15,1.57-2.91,2.85v21h-10.561V74.4z"/>
		<path d="M191.697,87.78l-3-5.221c4.879-6.039,11.1-9.06,18.66-9.06c5.318,0,9.42,1.17,12.3,3.51s4.319,5.571,4.319,9.69v19.8
			h-10.56V87.54c0-3.88-2.021-5.82-6.06-5.82c-2.961,0-5.4,0.82-7.32,2.46l2.22,3.78v18.54h-10.56V87.78z"/>
		<path d="M227.877,98.88h2.461c0.919,0,1.52-0.149,1.799-0.45c0.279-0.3,0.42-0.909,0.42-1.83V87.78l-4.199-5.221
			c2.199-2.88,4.879-5.109,8.04-6.689c3.159-1.58,6.72-2.37,10.68-2.37c5.319,0,9.42,1.17,12.3,3.51
			c2.881,2.34,4.32,5.571,4.32,9.69v19.8h-10.561V87.54c0-3.88-2.039-5.82-6.119-5.82c-2.721,0-5.061,0.78-7.021,2.34l3.12,3.9
			v10.92c0,2.36-0.63,4.221-1.891,5.58c-1.26,1.36-3.07,2.04-5.43,2.04h-7.92V98.88z"/>
		<path d="M244.977,64.98V59.64h9.42v3.181c0,0.52,0.111,0.88,0.33,1.08c0.221,0.2,0.59,0.3,1.109,0.3h13.08v6.6h-17.819
			C247.017,70.8,244.977,68.86,244.977,64.98z"/>
		<path d="M272.547,104.73c-3.101-1.78-4.65-4.41-4.65-7.891c0-1.52,0.38-2.869,1.141-4.05c0.759-1.18,1.799-2.09,3.119-2.73
			c-1.199-0.68-2.17-1.649-2.91-2.909c-0.74-1.261-1.109-2.63-1.109-4.11c0-2.88,1.05-5.19,3.15-6.93
			c2.1-1.74,5.148-2.61,9.149-2.61c1.159,0,2.36,0.09,3.601,0.27c1.238,0.181,2.18,0.371,2.819,0.57v7.68
			c-0.561-0.279-1.229-0.499-2.01-0.659s-1.491-0.24-2.13-0.24c-2.48,0-3.721,0.921-3.721,2.76c0,1.92,1.26,2.88,3.78,2.88h4.08
			v6.601h-4.08c-2.681,0-4.021,1.02-4.021,3.06c0,2.32,2.101,3.48,6.301,3.48c2.479,0,4.299-0.511,5.46-1.53
			c1.159-1.021,1.739-2.55,1.739-4.59V74.34h10.561v19.38c0,2.28-0.6,4.461-1.8,6.54c-1.2,2.08-3.12,3.791-5.761,5.13
			c-2.639,1.34-6.039,2.011-10.199,2.011C279.816,107.4,275.646,106.51,272.547,104.73z"/>
	</g>
</g>
</svg>