<!-- Generator: Adobe Illustrator 21.1.0, SVG Export Plug-In  -->
<svg version="1.1"
	 xmlns="http://www.w3.org/2000/svg" xmlns:xlink="http://www.w3.org/1999/xlink" xmlns:a="http://ns.adobe.com/AdobeSVGViewerExtensions/3.0/"
	 x="0px" y="0px" width="465.295px" height="63.601px" viewBox="0 0 465.295 63.601"
	 style="enable-background:new 0 0 465.295 63.601;" xml:space="preserve">
<style type="text/css">
	.st0{fill:#B3473B;}
</style>
<defs>
</defs>
<g>
	<g>
		<path class="st0" d="M3.149,45.091C1.05,43.311,0,40.721,0,37.32c0-3.479,1.189-6.189,3.569-8.13c2.38-1.939,5.631-2.91,9.75-2.91
			c1.76,0,3.511,0.16,5.25,0.48c1.74,0.32,3.25,0.76,4.531,1.319v-1.02c0-1.84-0.66-3.21-1.98-4.11
			c-1.32-0.899-3.501-1.35-6.54-1.35c-1.96,0-3.921,0.21-5.88,0.63C6.739,22.65,5.02,23.2,3.54,23.88V16.2
			c1.359-0.68,3.219-1.239,5.58-1.68c2.359-0.439,4.819-0.66,7.38-0.66c2.64,0,4.86,0.3,6.66,0.9l1.979-2.4h11.4l-5.82,6.66
			c1,0.96,1.74,2.211,2.221,3.75c0.479,1.54,0.72,3.149,0.72,4.83v19.26h-10.56v-11.52c-2.081-1.08-4.44-1.62-7.08-1.62
			c-1.801,0-3.111,0.29-3.931,0.87c-0.82,0.58-1.229,1.49-1.229,2.729c0,2.28,1.539,3.42,4.619,3.42c1.201,0,2.26-0.199,3.181-0.6
			v6.779c-1.681,0.561-4.001,0.841-6.96,0.841C8.101,47.761,5.25,46.87,3.149,45.091z"/>
		<path class="st0" d="M48.84,27.42c0-1.8-0.411-3.14-1.229-4.02c-0.82-0.88-2.23-1.32-4.23-1.32c-1.961,0-3.94,0.501-5.94,1.5
			v-7.92c0.92-0.479,2.21-0.899,3.87-1.26s3.25-0.54,4.77-0.54c4.32,0,7.621,1.131,9.9,3.39c2.28,2.261,3.42,5.53,3.42,9.811v19.8
			H48.84V27.42z"/>
		<path class="st0" d="M66.688,44.851c-1.26-1.34-1.889-3.189-1.889-5.55v-24.54h10.559v22.02c0,0.921,0.181,1.561,0.541,1.92
			c0.359,0.36,0.979,0.54,1.859,0.54h2.1v7.62H72.06C69.739,46.86,67.949,46.191,66.688,44.851z"/>
		<path class="st0" d="M83.759,14.761h10.56v10.26l10.5-10.26h12l-8.52,8.34c3.039,0.92,5.169,2.271,6.39,4.05
			c1.22,1.78,1.83,4.17,1.83,7.17v12.54h-10.561v-11.52c0-1.76-0.29-3.07-0.869-3.931c-0.58-0.859-1.65-1.489-3.211-1.89l-7.56,7.08
			v10.26h-10.56V14.761z"/>
		<path class="st0" d="M124.888,43.71c-2.781-2.699-4.17-6.77-4.17-12.21c0-3.639,0.56-6.789,1.68-9.449
			c1.119-2.66,2.67-4.689,4.65-6.091c1.98-1.399,4.189-2.1,6.63-2.1c1.479,0,2.78,0.27,3.899,0.81c1.12,0.54,2.02,1.251,2.701,2.131
			c1.439-1.96,3.939-2.94,7.5-2.94c3.239,0,5.799,0.95,7.68,2.85c1.879,1.9,2.82,4.371,2.82,7.41v22.74h-10.561V25.32
			c0-1.08-0.18-1.89-0.54-2.43s-0.96-0.811-1.8-0.811c-1.521,0-2.48,0.98-2.881,2.94h-4.26c-0.279-1.96-1.119-2.94-2.52-2.94
			c-1.24,0-2.24,0.801-3,2.4c-0.76,1.601-1.141,3.94-1.141,7.02c0,2.761,0.601,4.791,1.801,6.091c1.199,1.3,3.119,1.949,5.76,1.949
			c1.359,0,2.7-0.239,4.02-0.72v8.1c-1.799,0.561-3.82,0.841-6.06,0.841C131.737,47.761,127.667,46.41,124.888,43.71z"/>
		<path class="st0" d="M148.857,58.021c0-0.761-0.14-1.29-0.42-1.59c-0.279-0.301-0.8-0.45-1.56-0.45h-1.86V49.38h6.96
			c2.279,0,3.9,0.52,4.859,1.561c0.961,1.04,1.44,2.7,1.44,4.979v7.681h-9.42V58.021z"/>
		<path d="M170.397,46.261c-2.44-1-4.301-2.38-5.58-4.141c-1.28-1.76-1.92-3.759-1.92-6v-1.56c0-1.479,0.26-2.77,0.78-3.87
			c0.519-1.1,1.26-2.35,2.22-3.75c0.6-0.84,1.039-1.51,1.32-2.01c0.279-0.5,0.42-0.99,0.42-1.471c0-1.039-0.621-1.56-1.86-1.56h-3.3
			v-7.14h9.9c1.879,0,3.359,0.52,4.439,1.56c1.08,1.041,1.62,2.4,1.62,4.08c0,1.2-0.22,2.301-0.66,3.3c-0.44,1-1.079,2.101-1.92,3.3
			c-0.8,1.32-1.4,2.411-1.8,3.271c-0.4,0.86-0.6,1.83-0.6,2.91v1.08c0,1.72,0.479,3.029,1.439,3.93s2.379,1.35,4.26,1.35
			c1.959,0,3.391-0.489,4.291-1.47c0.899-0.979,1.35-2.33,1.35-4.05v-19.26h10.56v18.6c0,4.48-1.37,8.001-4.11,10.56
			c-2.74,2.561-6.77,3.841-12.09,3.841C175.757,47.761,172.837,47.26,170.397,46.261z"/>
		<path d="M206.308,46.95c-2.74-0.54-4.99-1.25-6.75-2.13V27.9h15.96v7.08h-5.76v3.72c0.519,0.24,1.22,0.44,2.1,0.601
			s1.78,0.239,2.7,0.239c2.799,0,4.91-0.75,6.33-2.25s2.13-3.709,2.13-6.63c0-3.039-0.831-5.229-2.489-6.569
			c-1.661-1.34-4.512-2.011-8.551-2.011c-2.08,0-4.23,0.201-6.449,0.601c-2.221,0.4-4.051,0.96-5.49,1.68V16.2
			c1.639-0.72,3.739-1.29,6.299-1.71c2.561-0.42,5.16-0.63,7.801-0.63c6.359,0,11.24,1.461,14.641,4.38
			c3.398,2.921,5.1,7.061,5.1,12.42c0,3.521-0.75,6.561-2.25,9.12c-1.5,2.561-3.701,4.53-6.6,5.91
			c-2.901,1.38-6.391,2.07-10.471,2.07C211.798,47.761,209.047,47.49,206.308,46.95z"/>
		<path d="M236.877,18.78h10.5l6.601,20.4c2.52,0,4.479-0.83,5.879-2.49c1.4-1.659,2.101-4.01,2.101-7.05
			c0-5.04-1.94-7.561-5.82-7.561c-1.319,0-2.52,0.201-3.6,0.601v-7.92c0.759-0.279,1.689-0.5,2.79-0.66
			c1.1-0.159,2.169-0.24,3.21-0.24c4.839,0,8.43,1.36,10.771,4.08c2.34,2.721,3.51,6.62,3.51,11.7c0,3.6-0.801,6.7-2.4,9.3
			c-1.601,2.601-3.74,4.57-6.42,5.91c-2.681,1.341-5.641,2.01-8.88,2.01h-9.181L236.877,18.78z"/>
		<path d="M282.566,46.95c-2.74-0.54-4.99-1.25-6.75-2.13V27.9h15.96v7.08h-5.76v3.72c0.52,0.24,1.22,0.44,2.1,0.601
			c0.879,0.16,1.779,0.239,2.7,0.239c2.8,0,4.909-0.75,6.33-2.25c1.419-1.5,2.13-3.709,2.13-6.63c0-3.039-0.83-5.229-2.49-6.569
			s-4.51-2.011-8.55-2.011c-2.08,0-4.229,0.201-6.45,0.601c-2.22,0.4-4.05,0.96-5.49,1.68V16.2c1.641-0.72,3.74-1.29,6.301-1.71
			c2.559-0.42,5.16-0.63,7.8-0.63c6.36,0,11.239,1.461,14.64,4.38c3.399,2.921,5.1,7.061,5.1,12.42c0,3.521-0.75,6.561-2.25,9.12
			c-1.5,2.561-3.699,4.53-6.6,5.91s-6.39,2.07-10.47,2.07C288.057,47.761,285.306,47.49,282.566,46.95z"/>
		<path d="M299.516,58.021c0-0.761-0.14-1.29-0.42-1.59c-0.279-0.301-0.8-0.45-1.56-0.45h-1.86V49.38h6.96
			c2.279,0,3.9,0.52,4.859,1.561c0.961,1.04,1.44,2.7,1.44,4.979v7.681h-9.42V58.021z"/>
		<path d="M314.336,14.761h10.021v3.359c1.359-1.359,2.988-2.409,4.889-3.149s3.811-1.11,5.73-1.11c4.08,0,7.149,1.08,9.21,3.24
			c2.06,2.16,3.091,5.04,3.091,8.64v21.12h-10.561V26.94c0-3.24-1.66-4.86-4.98-4.86c-1.439,0-2.75,0.311-3.93,0.931
			s-2.15,1.57-2.91,2.85v21h-10.56V14.761z"/>
		<path d="M354.176,28.141l-3-5.221c4.88-6.039,11.1-9.06,18.659-9.06c5.32,0,9.42,1.17,12.301,3.51c2.88,2.34,4.32,5.571,4.32,9.69
			v19.8h-10.561V27.9c0-3.88-2.02-5.82-6.061-5.82c-2.96,0-5.399,0.82-7.319,2.46l2.22,3.78v18.54h-10.56V28.141z"/>
		<path d="M390.355,39.24h2.46c0.92,0,1.52-0.149,1.8-0.45c0.279-0.3,0.42-0.909,0.42-1.83v-8.819l-4.2-5.221
			c2.199-2.88,4.88-5.109,8.041-6.689c3.158-1.58,6.719-2.37,10.68-2.37c5.318,0,9.42,1.17,12.3,3.51s4.319,5.571,4.319,9.69v19.8
			h-10.56V27.9c0-3.88-2.04-5.82-6.12-5.82c-2.721,0-5.061,0.78-7.02,2.34l3.119,3.9v10.92c0,2.36-0.629,4.221-1.89,5.58
			c-1.26,1.36-3.07,2.04-5.43,2.04h-7.92V39.24z"/>
		<path d="M407.455,5.341V0h9.42v3.181c0,0.52,0.11,0.88,0.33,1.08s0.591,0.3,1.11,0.3h13.08v6.6h-17.82
			C409.495,11.16,407.455,9.221,407.455,5.341z"/>
		<path d="M435.024,45.091c-3.1-1.78-4.649-4.41-4.649-7.891c0-1.52,0.38-2.869,1.14-4.05c0.76-1.18,1.801-2.09,3.12-2.73
			c-1.2-0.68-2.17-1.649-2.909-2.909c-0.741-1.261-1.11-2.63-1.11-4.11c0-2.88,1.05-5.19,3.149-6.93c2.101-1.74,5.15-2.61,9.15-2.61
			c1.16,0,2.359,0.09,3.6,0.27c1.24,0.181,2.18,0.371,2.82,0.57v7.68c-0.561-0.279-1.23-0.499-2.01-0.659
			c-0.78-0.16-1.49-0.24-2.131-0.24c-2.48,0-3.719,0.921-3.719,2.76c0,1.92,1.26,2.88,3.779,2.88h4.08v6.601h-4.08
			c-2.68,0-4.02,1.02-4.02,3.06c0,2.32,2.1,3.48,6.3,3.48c2.479,0,4.3-0.511,5.46-1.53c1.16-1.021,1.74-2.55,1.74-4.59V14.7h10.56
			v19.38c0,2.28-0.601,4.461-1.8,6.54c-1.2,2.08-3.12,3.791-5.76,5.13c-2.641,1.34-6.041,2.011-10.2,2.011
			C442.294,47.761,438.124,46.87,435.024,45.091z"/>
	</g>
</g>
</svg>