<!-- Generator: Adobe Illustrator 21.1.0, SVG Export Plug-In  -->
<svg version="1.1"
	 xmlns="http://www.w3.org/2000/svg" xmlns:xlink="http://www.w3.org/1999/xlink" xmlns:a="http://ns.adobe.com/AdobeSVGViewerExtensions/3.0/"
	 x="0px" y="0px" width="492.521px" height="162.519px" viewBox="0 0 492.521 162.519"
	 style="enable-background:new 0 0 492.521 162.519;" xml:space="preserve">
<style type="text/css">
	.st0{fill:#B3473B;}
	.st1{fill:#FFFFFF;}
</style>
<defs>
</defs>
<g>
	<path class="st0" d="M3.55,35.357L0,29.181C5.774,22.034,13.135,18.46,22.081,18.46c6.295,0,11.147,1.385,14.555,4.153
		c3.408,2.769,5.112,6.592,5.112,11.467v23.43H29.252V35.074c0-4.591-2.391-6.888-7.171-6.888c-3.503,0-6.39,0.971-8.662,2.911
		l2.627,4.473V57.51H3.55V35.357z"/>
	<path class="st0" d="M58.788,34.506c0-2.13-0.485-3.716-1.455-4.757c-0.971-1.041-2.64-1.563-5.006-1.563
		c-2.319,0-4.662,0.593-7.028,1.775V20.59c1.088-0.568,2.614-1.065,4.579-1.491c1.964-0.426,3.845-0.639,5.645-0.639
		c5.112,0,9.017,1.338,11.715,4.012s4.047,6.544,4.047,11.608v23.43H58.788V34.506z"/>
	<path class="st0" d="M83.708,57.758c-2.982-0.543-5.325-1.336-7.029-2.378v-9.372c2.034,1.184,4.366,2.13,6.993,2.84
		s4.981,1.065,7.064,1.065c2.177,0,3.786-0.201,4.828-0.604c1.041-0.402,1.563-1.101,1.563-2.095c0-0.898-0.497-1.608-1.491-2.13
		c-0.994-0.521-2.84-1.207-5.538-2.06l-2.201-0.71c-4.023-1.324-6.97-2.875-8.84-4.65c-1.87-1.774-2.804-4.225-2.804-7.349
		c0-3.786,1.514-6.709,4.544-8.769c3.028-2.059,7.075-3.088,12.141-3.088c2.84,0,5.585,0.284,8.236,0.852
		c2.65,0.568,4.78,1.303,6.39,2.201v9.514c-1.516-1.04-3.42-1.893-5.716-2.556c-2.296-0.662-4.484-0.994-6.567-0.994
		c-4.165,0-6.248,0.947-6.248,2.84c0,0.948,0.533,1.681,1.598,2.201c1.065,0.521,2.828,1.136,5.29,1.846l2.697,0.853
		c4.307,1.325,7.266,2.946,8.875,4.863s2.414,4.366,2.414,7.349c0,3.361-1.455,6.06-4.366,8.094
		c-2.911,2.035-7.254,3.054-13.028,3.054C89.624,58.575,86.689,58.302,83.708,57.758z"/>
	<path class="st0" d="M117.112,55.131c-1.491-1.585-2.236-3.773-2.236-6.567V19.524h12.496v26.058c0,1.089,0.213,1.846,0.639,2.271
		s1.159,0.64,2.201,0.64h2.484v9.017h-9.229C120.721,57.51,118.604,56.718,117.112,55.131z"/>
	<path class="st0" d="M140.826,53.782c-3.291-3.195-4.935-8.011-4.935-14.448c0-4.307,0.662-8.034,1.987-11.183
		c1.325-3.147,3.16-5.549,5.503-7.207c2.343-1.656,4.958-2.484,7.846-2.484c1.75,0,3.289,0.319,4.614,0.958
		c1.325,0.64,2.39,1.48,3.195,2.521c1.704-2.318,4.662-3.479,8.875-3.479c3.834,0,6.862,1.125,9.088,3.372
		c2.225,2.249,3.337,5.172,3.337,8.769V57.51h-12.496V32.021c0-1.277-0.213-2.236-0.639-2.875c-0.426-0.64-1.136-0.959-2.13-0.959
		c-1.8,0-2.936,1.161-3.408,3.479h-5.041c-0.331-2.318-1.325-3.479-2.981-3.479c-1.468,0-2.651,0.947-3.551,2.84
		c-0.899,1.895-1.349,4.663-1.349,8.308c0,3.266,0.71,5.669,2.13,7.206c1.42,1.539,3.692,2.308,6.816,2.308
		c1.608,0,3.194-0.284,4.757-0.852v9.585c-2.13,0.662-4.521,0.994-7.171,0.994C148.931,58.575,144.115,56.978,140.826,53.782z"/>
	<path class="st0" d="M192.763,57.758c-2.982-0.543-5.325-1.336-7.029-2.378v-9.372c2.034,1.184,4.366,2.13,6.993,2.84
		s4.981,1.065,7.064,1.065c2.177,0,3.786-0.201,4.828-0.604c1.041-0.402,1.563-1.101,1.563-2.095c0-0.898-0.497-1.608-1.491-2.13
		c-0.994-0.521-2.84-1.207-5.538-2.06l-2.201-0.71c-4.023-1.324-6.97-2.875-8.84-4.65c-1.87-1.774-2.804-4.225-2.804-7.349
		c0-3.786,1.514-6.709,4.544-8.769c3.028-2.059,7.075-3.088,12.141-3.088c2.84,0,5.585,0.284,8.236,0.852
		c2.65,0.568,4.78,1.303,6.39,2.201v9.514c-1.516-1.04-3.42-1.893-5.716-2.556c-2.296-0.662-4.484-0.994-6.567-0.994
		c-4.165,0-6.248,0.947-6.248,2.84c0,0.948,0.533,1.681,1.598,2.201c1.065,0.521,2.828,1.136,5.29,1.846l2.697,0.853
		c4.307,1.325,7.266,2.946,8.875,4.863s2.414,4.366,2.414,7.349c0,3.361-1.455,6.06-4.366,8.094
		c-2.911,2.035-7.254,3.054-13.028,3.054C198.679,58.575,195.744,58.302,192.763,57.758z"/>
	<path class="st0" d="M183.531,7.455h22.649V0h11.289v15.265h-33.938V7.455z"/>
	<path class="st0" d="M228.013,55.415c-3.669-2.105-5.502-5.219-5.502-9.336c0-1.799,0.449-3.396,1.349-4.793
		c0.898-1.396,2.13-2.473,3.692-3.23c-1.42-0.804-2.568-1.952-3.444-3.443s-1.313-3.112-1.313-4.863
		c0-3.408,1.243-6.142,3.728-8.201c2.485-2.059,6.094-3.088,10.828-3.088c1.372,0,2.792,0.106,4.26,0.319
		c1.467,0.213,2.579,0.438,3.337,0.675v9.088c-0.663-0.331-1.455-0.592-2.379-0.781c-0.923-0.188-1.764-0.284-2.521-0.284
		c-2.935,0-4.401,1.09-4.401,3.267c0,2.271,1.491,3.407,4.473,3.407h4.828v7.811h-4.828c-3.172,0-4.757,1.207-4.757,3.621
		c0,2.745,2.485,4.118,7.455,4.118c2.935,0,5.088-0.604,6.461-1.811c1.372-1.207,2.059-3.018,2.059-5.432V19.454h12.496v22.933
		c0,2.698-0.71,5.278-2.13,7.739c-1.42,2.462-3.691,4.485-6.815,6.07s-7.148,2.379-12.07,2.379
		C236.615,58.575,231.681,57.521,228.013,55.415z"/>
	<path class="st0" d="M287.688,57.262c-2.178-0.876-4.047-2.095-5.609-3.657v3.905h-11.856V19.524h12.496v24.851
		c0.898,1.516,1.963,2.639,3.194,3.372c1.23,0.734,2.722,1.101,4.474,1.101c2.034,0,3.597-0.497,4.686-1.491
		c1.088-0.994,1.633-2.484,1.633-4.473V19.524h12.496v24.141c0,2.84-0.567,5.385-1.704,7.632c-1.136,2.249-2.816,4.024-5.041,5.325
		c-2.226,1.302-4.898,1.953-8.022,1.953C292.113,58.575,289.865,58.137,287.688,57.262z"/>
	<path class="st0" d="M313.461,19.524h12.495l4.545,20.945l5.751-20.945h8.875l5.751,20.945l4.544-20.945h12.496L357.339,57.51
		h-10.65l-6.035-21.229l-5.964,21.229h-10.65L313.461,19.524z"/>
	<path class="st0" d="M378.213,57.758c-2.982-0.543-5.325-1.336-7.029-2.378v-9.372c2.034,1.184,4.366,2.13,6.993,2.84
		s4.981,1.065,7.064,1.065c2.177,0,3.786-0.201,4.828-0.604c1.041-0.402,1.563-1.101,1.563-2.095c0-0.898-0.497-1.608-1.491-2.13
		c-0.994-0.521-2.84-1.207-5.538-2.06l-2.201-0.71c-4.023-1.324-6.97-2.875-8.84-4.65c-1.87-1.774-2.804-4.225-2.804-7.349
		c0-3.786,1.514-6.709,4.544-8.769c3.028-2.059,7.075-3.088,12.141-3.088c2.84,0,5.585,0.284,8.236,0.852
		c2.65,0.568,4.78,1.303,6.39,2.201v9.514c-1.516-1.04-3.42-1.893-5.716-2.556c-2.296-0.662-4.484-0.994-6.567-0.994
		c-4.165,0-6.248,0.947-6.248,2.84c0,0.948,0.533,1.681,1.598,2.201c1.065,0.521,2.828,1.136,5.29,1.846l2.697,0.853
		c4.307,1.325,7.266,2.946,8.875,4.863s2.414,4.366,2.414,7.349c0,3.361-1.455,6.06-4.366,8.094
		c-2.911,2.035-7.254,3.054-13.028,3.054C384.129,58.575,381.194,58.302,378.213,57.758z"/>
	<path class="st0" d="M384.46,10.649c0-0.473-0.095-0.816-0.284-1.029c-0.188-0.213-0.544-0.319-1.065-0.319h-3.408V0.923h7.385
		c3.455,0,5.183,1.491,5.183,4.473v1.988h14.058v7.881H384.46V10.649z"/>
	<path class="st0" d="M415.948,57.616c-3.243-0.639-5.905-1.479-7.987-2.521V35.074h18.886v8.378h-6.816v4.401
		c0.615,0.284,1.443,0.521,2.485,0.71c1.04,0.19,2.105,0.284,3.195,0.284c3.313,0,5.81-0.888,7.49-2.662
		c1.68-1.775,2.521-4.39,2.521-7.846c0-3.597-0.983-6.188-2.946-7.774c-1.965-1.586-5.338-2.379-10.118-2.379
		c-2.461,0-5.005,0.237-7.632,0.71c-2.627,0.474-4.793,1.137-6.497,1.988v-9.656c1.94-0.852,4.426-1.526,7.455-2.023
		c3.028-0.497,6.106-0.745,9.23-0.745c7.525,0,13.3,1.729,17.323,5.183c4.023,3.456,6.035,8.354,6.035,14.697
		c0,4.166-0.888,7.764-2.662,10.792c-1.775,3.029-4.379,5.36-7.811,6.993s-7.562,2.45-12.389,2.45
		C422.444,58.575,419.189,58.255,415.948,57.616z"/>
	<path class="st0" d="M471.008,57.262c-2.178-0.876-4.047-2.095-5.609-3.657v3.905h-11.856V19.524h12.496v24.851
		c0.898,1.516,1.963,2.639,3.194,3.372c1.23,0.734,2.722,1.101,4.474,1.101c2.034,0,3.597-0.497,4.686-1.491
		c1.088-0.994,1.633-2.484,1.633-4.473V19.524h12.496v24.141c0,2.84-0.567,5.385-1.704,7.632c-1.136,2.249-2.816,4.024-5.041,5.325
		c-2.226,1.302-4.898,1.953-8.022,1.953C475.433,58.575,473.185,58.137,471.008,57.262z"/>
	<path class="st1" d="M55.131,142.958c-2.982-0.543-5.325-1.336-7.029-2.378v-9.372c2.034,1.184,4.366,2.13,6.993,2.84
		s4.981,1.065,7.064,1.065c2.177,0,3.786-0.201,4.828-0.604c1.041-0.402,1.563-1.101,1.563-2.095c0-0.898-0.497-1.608-1.491-2.13
		c-0.994-0.521-2.84-1.207-5.538-2.06l-2.201-0.71c-4.023-1.324-6.97-2.875-8.84-4.65c-1.87-1.774-2.804-4.225-2.804-7.349
		c0-3.786,1.514-6.709,4.544-8.769c3.028-2.059,7.075-3.088,12.141-3.088c2.84,0,5.585,0.284,8.236,0.852
		c2.65,0.568,4.78,1.303,6.39,2.201v9.514c-1.516-1.04-3.42-1.893-5.716-2.556c-2.296-0.662-4.484-0.994-6.567-0.994
		c-4.165,0-6.248,0.947-6.248,2.84c0,0.948,0.533,1.681,1.598,2.201c1.065,0.521,2.828,1.136,5.29,1.846l2.697,0.853
		c4.307,1.325,7.266,2.946,8.875,4.863s2.414,4.366,2.414,7.349c0,3.361-1.455,6.06-4.366,8.094
		c-2.911,2.035-7.254,3.054-13.028,3.054C61.047,143.775,58.112,143.502,55.131,142.958z"/>
	<path class="st1" d="M57.757,93.578v-6.319h11.146v3.763c0,0.616,0.131,1.042,0.391,1.278c0.261,0.237,0.699,0.355,1.313,0.355
		h15.479v7.81H64.998C60.171,100.465,57.757,98.17,57.757,93.578z"/>
	<path class="st1" d="M95.813,141.681c-3.029-1.396-5.373-3.349-7.029-5.857c-1.657-2.509-2.484-5.349-2.484-8.521v-22.578h12.496
		v21.514c0,2.556,0.604,4.497,1.811,5.821c1.207,1.326,3.135,1.988,5.786,1.988c5.064,0,7.597-2.603,7.597-7.81v-21.514h12.496
		v22.578c0,3.172-0.828,6.012-2.484,8.521c-1.658,2.509-4.001,4.462-7.029,5.857c-3.03,1.396-6.557,2.095-10.579,2.095
		C102.368,143.775,98.841,143.076,95.813,141.681z"/>
	<path class="st1" d="M150.34,142.462c-2.178-0.876-4.047-2.095-5.609-3.657v3.905h-11.856v-37.985h12.496v24.851
		c0.898,1.516,1.963,2.639,3.194,3.372c1.23,0.734,2.722,1.101,4.474,1.101c2.034,0,3.597-0.497,4.686-1.491
		c1.088-0.994,1.633-2.484,1.633-4.473v-23.359h12.496v24.141c0,2.84-0.567,5.385-1.704,7.632c-1.136,2.249-2.816,4.024-5.041,5.325
		c-2.226,1.302-4.898,1.953-8.022,1.953C154.765,143.775,152.517,143.337,150.34,142.462z"/>
	<path class="st1" d="M137.843,92.655h12.638V85.2h8.592v7.455h4.117V85.2h8.592v15.265h-33.938V92.655z"/>
	<path class="st1" d="M184.81,142.816c-3.243-0.639-5.905-1.479-7.987-2.521v-20.021h18.886v8.378h-6.816v4.401
		c0.615,0.284,1.443,0.521,2.485,0.71c1.04,0.19,2.105,0.284,3.195,0.284c3.313,0,5.81-0.888,7.49-2.662
		c1.68-1.775,2.521-4.39,2.521-7.846c0-3.597-0.983-6.188-2.946-7.774c-1.965-1.586-5.338-2.379-10.118-2.379
		c-2.461,0-5.005,0.237-7.632,0.71c-2.627,0.474-4.793,1.137-6.497,1.988v-9.656c1.94-0.852,4.426-1.526,7.455-2.023
		c3.028-0.497,6.106-0.745,9.23-0.745c7.525,0,13.3,1.729,17.323,5.183c4.023,3.456,6.035,8.354,6.035,14.697
		c0,4.166-0.888,7.764-2.662,10.792c-1.775,3.029-4.379,5.36-7.811,6.993s-7.562,2.45-12.389,2.45
		C191.306,143.775,188.051,143.455,184.81,142.816z"/>
	<path class="st1" d="M228.972,142.816c-3.243-0.639-5.905-1.479-7.987-2.521v-20.021h18.886v8.378h-6.816v4.401
		c0.615,0.284,1.443,0.521,2.485,0.71c1.04,0.19,2.105,0.284,3.195,0.284c3.313,0,5.81-0.888,7.49-2.662
		c1.68-1.775,2.521-4.39,2.521-7.846c0-3.597-0.983-6.188-2.946-7.774c-1.965-1.586-5.338-2.379-10.118-2.379
		c-2.461,0-5.005,0.237-7.632,0.71c-2.627,0.474-4.793,1.137-6.497,1.988v-9.656c1.94-0.852,4.426-1.526,7.455-2.023
		c3.028-0.497,6.106-0.745,9.23-0.745c7.525,0,13.3,1.729,17.323,5.183c4.023,3.456,6.035,8.354,6.035,14.697
		c0,4.166-0.888,7.764-2.662,10.792c-1.775,3.029-4.379,5.36-7.811,6.993s-7.562,2.45-12.389,2.45
		C235.468,143.775,232.213,143.455,228.972,142.816z"/>
	<path class="st1" d="M249.028,155.916c0-0.899-0.165-1.526-0.497-1.882c-0.331-0.354-0.946-0.532-1.846-0.532h-2.201v-7.81h8.235
		c2.698,0,4.615,0.614,5.751,1.846c1.137,1.23,1.704,3.195,1.704,5.893v9.088h-11.146V155.916z"/>
	<path class="st1" d="M266.565,104.725h11.856v3.977c1.608-1.608,3.538-2.852,5.787-3.728c2.247-0.875,4.508-1.313,6.78-1.313
		c4.828,0,8.46,1.277,10.898,3.834c2.438,2.556,3.656,5.964,3.656,10.224v24.992h-12.496v-23.572c0-3.834-1.965-5.751-5.893-5.751
		c-1.704,0-3.255,0.367-4.65,1.101c-1.396,0.734-2.545,1.858-3.443,3.373v24.85h-12.496V104.725z"/>
	<path class="st1" d="M313.709,120.558l-3.55-6.177c5.774-7.146,13.135-10.721,22.081-10.721c6.295,0,11.147,1.385,14.555,4.153
		c3.408,2.769,5.112,6.592,5.112,11.467v23.43h-12.496v-22.436c0-4.591-2.391-6.888-7.171-6.888c-3.503,0-6.39,0.971-8.662,2.911
		l2.627,4.473v21.939h-12.496V120.558z"/>
	<path class="st1" d="M356.521,133.693h2.911c1.088,0,1.798-0.178,2.13-0.533c0.331-0.354,0.497-1.076,0.497-2.165v-10.438
		l-4.97-6.177c2.603-3.408,5.774-6.046,9.514-7.916c3.738-1.87,7.952-2.805,12.638-2.805c6.295,0,11.147,1.385,14.556,4.153
		c3.407,2.769,5.111,6.592,5.111,11.467v23.43h-12.496v-22.436c0-4.591-2.413-6.888-7.241-6.888c-3.22,0-5.988,0.923-8.308,2.77
		l3.692,4.614v12.923c0,2.793-0.745,4.994-2.236,6.603c-1.491,1.609-3.634,2.414-6.426,2.414h-9.372V133.693z"/>
	<path class="st1" d="M376.756,93.578v-6.319h11.146v3.763c0,0.616,0.131,1.042,0.391,1.278c0.261,0.237,0.699,0.355,1.313,0.355
		h15.479v7.81h-21.088C379.17,100.465,376.756,98.17,376.756,93.578z"/>
	<path class="st1" d="M409.38,140.615c-3.669-2.105-5.502-5.219-5.502-9.336c0-1.799,0.449-3.396,1.349-4.793
		c0.898-1.396,2.13-2.473,3.692-3.23c-1.42-0.804-2.568-1.952-3.444-3.443s-1.313-3.112-1.313-4.863
		c0-3.408,1.243-6.142,3.728-8.201c2.485-2.059,6.094-3.088,10.828-3.088c1.372,0,2.792,0.106,4.26,0.319
		c1.467,0.213,2.579,0.438,3.337,0.675v9.088c-0.663-0.331-1.455-0.592-2.379-0.781c-0.923-0.188-1.764-0.284-2.521-0.284
		c-2.935,0-4.401,1.09-4.401,3.267c0,2.271,1.491,3.407,4.473,3.407h4.828v7.811h-4.828c-3.172,0-4.757,1.207-4.757,3.621
		c0,2.745,2.485,4.118,7.455,4.118c2.935,0,5.088-0.604,6.461-1.811c1.372-1.207,2.059-3.018,2.059-5.432v-23.004h12.496v22.933
		c0,2.698-0.71,5.278-2.13,7.739c-1.42,2.462-3.691,4.485-6.815,6.07s-7.148,2.379-12.07,2.379
		C417.982,143.775,413.048,142.721,409.38,140.615z"/>
</g>
</svg>