<!-- Generator: Adobe Illustrator 21.1.0, SVG Export Plug-In  -->
<svg version="1.1"
	 xmlns="http://www.w3.org/2000/svg" xmlns:xlink="http://www.w3.org/1999/xlink" xmlns:a="http://ns.adobe.com/AdobeSVGViewerExtensions/3.0/"
	 x="0px" y="0px" width="395.363px" height="38.655px" viewBox="0 0 395.363 38.655"
	 style="enable-background:new 0 0 395.363 38.655;" xml:space="preserve">
<defs>
</defs>
<g>
	<g>
		<path d="M1.237,36.653C0.412,35.769,0,34.531,0,32.94V13.905h5.715v17.235c0,0.78,0.165,1.32,0.495,1.62
			c0.33,0.3,0.87,0.45,1.62,0.45h1.575v4.77h-4.59C3.254,37.98,2.062,37.538,1.237,36.653z M13.342,36.653
			c-0.826-0.885-1.237-2.122-1.237-3.713V13.905h5.715v17.235c0,0.78,0.165,1.32,0.495,1.62c0.33,0.3,0.87,0.45,1.62,0.45h1.575
			v4.77h-4.59C15.359,37.98,14.167,37.538,13.342,36.653z"/>
		<path d="M31.747,37.351c-1.815-0.87-3.21-2.077-4.185-3.623c-0.975-1.544-1.462-3.307-1.462-5.287V13.905h5.715v14.311
			c0,1.89,0.524,3.36,1.575,4.409c1.05,1.051,2.61,1.575,4.68,1.575c2.04,0,3.585-0.524,4.635-1.575
			c1.05-1.049,1.575-2.52,1.575-4.409V13.905h5.715V28.44c0,1.98-0.488,3.743-1.462,5.287c-0.976,1.546-2.363,2.753-4.163,3.623
			c-1.8,0.87-3.9,1.305-6.3,1.305C35.668,38.655,33.562,38.221,31.747,37.351z"/>
		<path d="M44.324,2.881h5.715v7.739h-5.715V2.881z"/>
		<path d="M54.494,16.921h5.715l5.265,16.604c2.52,0,4.462-0.712,5.828-2.138c1.365-1.424,2.047-3.457,2.047-6.098
			c0-2.549-0.465-4.454-1.395-5.715c-0.93-1.26-2.415-1.89-4.455-1.89c-1.11,0-2.146,0.15-3.105,0.45v-4.365
			c1.17-0.36,2.535-0.54,4.095-0.54c3.51,0,6.172,1.065,7.988,3.195c1.814,2.13,2.722,5.085,2.722,8.864
			c0,2.641-0.578,4.921-1.732,6.841c-1.155,1.92-2.708,3.375-4.657,4.364c-1.951,0.99-4.111,1.485-6.48,1.485h-5.175L54.494,16.921z
			"/>
		<path d="M86.376,36.653c-0.825-0.885-1.237-2.122-1.237-3.713V16.695c0-3.6,1.095-6.194,3.285-7.785h-7.65v-4.77h15.12v4.455
			c-1.771,0.72-3.053,1.688-3.848,2.902c-0.795,1.215-1.192,2.902-1.192,5.063v14.58c0,0.78,0.165,1.32,0.495,1.62
			c0.33,0.3,0.87,0.45,1.62,0.45h1.575v4.77h-4.59C88.394,37.98,87.201,37.538,86.376,36.653z"/>
		<path d="M101.316,35.573c-2.115-2.055-3.173-5.063-3.173-9.022c0-2.76,0.547-5.138,1.643-7.133c1.095-1.995,2.67-3.524,4.725-4.59
			c2.055-1.064,4.478-1.598,7.268-1.598c4.41,0,7.634,1.021,9.675,3.06c2.04,2.041,3.06,4.696,3.06,7.966V37.98h-5.715v-13.77
			c0-2.1-0.548-3.713-1.643-4.838c-1.096-1.125-2.888-1.688-5.377-1.688c-2.4,0-4.297,0.772-5.692,2.317
			c-1.395,1.546-2.093,3.728-2.093,6.548c0,2.58,0.6,4.5,1.8,5.76c1.199,1.26,2.925,1.89,5.175,1.89c1.109,0,2.145-0.149,3.105-0.45
			v4.365c-1.17,0.36-2.536,0.54-4.095,0.54C106.318,38.655,103.431,37.628,101.316,35.573z"/>
		<path d="M114.253,7.785c0-0.329-0.067-0.569-0.203-0.72c-0.135-0.149-0.382-0.225-0.742-0.225h-2.07v-3.96h3.825
			c1.02,0,1.771,0.247,2.25,0.742c0.48,0.495,0.72,1.103,0.72,1.822v1.44h9.225v3.734h-13.005V7.785z"/>
		<path d="M131.151,36.653c-0.826-0.885-1.237-2.122-1.237-3.713V13.905h5.715v17.235c0,0.78,0.165,1.32,0.495,1.62
			c0.33,0.3,0.87,0.45,1.62,0.45h1.575v4.77h-4.59C133.168,37.98,131.976,37.538,131.151,36.653z"/>
		<path d="M149.465,37.351c-1.815-0.87-3.21-2.077-4.185-3.623c-0.975-1.544-1.462-3.307-1.462-5.287V13.905h5.715v14.311
			c0,1.89,0.524,3.36,1.575,4.409c1.049,1.051,2.61,1.575,4.68,1.575c2.04,0,3.584-0.524,4.635-1.575
			c1.05-1.049,1.575-2.52,1.575-4.409V5.851h5.715v22.59c0,1.98-0.488,3.743-1.463,5.287c-0.975,1.546-2.362,2.753-4.162,3.623
			c-1.8,0.87-3.9,1.305-6.3,1.305C153.387,38.655,151.28,38.221,149.465,37.351z"/>
		<path d="M145.167,9.473c-0.99-0.914-1.485-2.137-1.485-3.667c0-1.92,0.556-3.367,1.665-4.343C146.457,0.488,147.972,0,149.892,0
			h10.035v3.105h-9.63c-0.9,0-1.582,0.18-2.048,0.54c-0.464,0.36-0.697,0.945-0.697,1.755c0,0.72,0.188,1.268,0.563,1.643
			c0.375,0.375,0.908,0.563,1.598,0.563c0.75,0,1.327-0.21,1.732-0.63c0.405-0.42,0.607-0.975,0.607-1.665h3.06
			c0,0.72,0.21,1.253,0.63,1.598c0.42,0.345,1.005,0.518,1.755,0.518h1.755v3.239h-1.665c-1.02,0-1.897-0.194-2.633-0.585
			c-0.735-0.389-1.207-0.869-1.417-1.439c-0.27,0.601-0.81,1.118-1.62,1.553c-0.81,0.435-1.725,0.652-2.745,0.652
			C147.492,10.846,146.157,10.389,145.167,9.473z"/>
		<path d="M177.432,37.463c-1.411-0.795-2.483-1.89-3.217-3.285c-0.736-1.395-1.103-2.947-1.103-4.657V13.905h5.715V29.25
			c0,3.301,1.755,4.95,5.265,4.95c2.76,0,4.919-1.229,6.48-3.689V13.905h5.715V37.98h-5.49v-2.97c-1.14,1.2-2.438,2.107-3.892,2.723
			c-1.456,0.614-2.933,0.922-4.433,0.922C180.521,38.655,178.842,38.258,177.432,37.463z"/>
		<path d="M216.986,34.29l6.21-5.715l2.97-2.654c1.649-1.44,2.902-2.595,3.757-3.466c0.855-0.869,1.553-1.807,2.093-2.813
			c0.54-1.004,0.81-2.092,0.81-3.262c0-1.71-0.503-3.022-1.508-3.938c-1.005-0.915-2.438-1.373-4.297-1.373
			c-1.44,0-2.933,0.263-4.478,0.788c-1.545,0.524-2.947,1.268-4.208,2.228V8.641c2.61-1.86,5.82-2.79,9.63-2.79
			c3.36,0,5.97,0.899,7.83,2.7c1.86,1.8,2.79,4.26,2.79,7.38c0,1.47-0.285,2.843-0.855,4.117c-0.57,1.275-1.38,2.513-2.43,3.713
			c-1.051,1.2-2.475,2.625-4.275,4.274l-5.625,5.221h14.31v4.725h-22.725V34.29z"/>
		<path d="M266.058,37.351c-1.815-0.87-3.21-2.077-4.185-3.623c-0.975-1.544-1.462-3.307-1.462-5.287V13.905h5.715v14.311
			c0,1.89,0.524,3.36,1.575,4.409c1.049,1.051,2.61,1.575,4.68,1.575c2.04,0,3.584-0.524,4.635-1.575
			c1.05-1.049,1.575-2.52,1.575-4.409V5.851h5.715v22.59c0,1.98-0.488,3.743-1.463,5.287c-0.975,1.546-2.362,2.753-4.162,3.623
			c-1.8,0.87-3.9,1.305-6.3,1.305C269.979,38.655,267.872,38.221,266.058,37.351z"/>
		<path d="M293.102,38.115c-1.755-0.359-3.127-0.899-4.118-1.62V32.04c1.32,0.781,2.782,1.366,4.388,1.756
			c1.604,0.39,3.083,0.585,4.432,0.585c1.8,0,3.098-0.181,3.893-0.54c0.794-0.36,1.192-1.035,1.192-2.025
			c0-0.689-0.21-1.237-0.63-1.643c-0.42-0.405-0.99-0.742-1.71-1.013c-0.72-0.27-2.07-0.704-4.05-1.305
			c-2.581-0.81-4.508-1.784-5.783-2.925c-1.275-1.14-1.913-2.685-1.913-4.635c0-2.25,0.9-3.99,2.7-5.221
			c1.8-1.229,4.23-1.845,7.29-1.845c1.62,0,3.172,0.173,4.657,0.518c1.485,0.345,2.707,0.803,3.668,1.372v4.681
			c-0.99-0.63-2.183-1.14-3.578-1.53c-1.395-0.39-2.798-0.585-4.208-0.585c-3.21,0-4.815,0.87-4.815,2.61
			c0,0.63,0.195,1.14,0.585,1.529c0.39,0.391,0.915,0.713,1.575,0.968c0.66,0.255,1.665,0.593,3.015,1.013l1.485,0.45
			c1.92,0.6,3.413,1.245,4.478,1.935c1.064,0.69,1.815,1.485,2.25,2.385c0.435,0.9,0.653,2.011,0.653,3.33
			c0,2.011-0.855,3.638-2.565,4.883c-1.71,1.244-4.275,1.867-7.695,1.867C296.589,38.655,294.857,38.476,293.102,38.115z"/>
		<path d="M313.037,22.636c-0.585-0.66-0.878-1.68-0.878-3.061v-2.88h5.13v1.845c0,0.45,0.097,0.766,0.292,0.945
			c0.195,0.18,0.532,0.271,1.012,0.271h5.31v3.869h-7.83C314.634,23.625,313.622,23.296,313.037,22.636z M313.037,34.83
			c-0.585-0.659-0.878-1.68-0.878-3.06v-2.88h5.13v1.845c0,0.45,0.097,0.765,0.292,0.945c0.195,0.18,0.532,0.27,1.012,0.27h5.31
			v3.87h-7.83C314.634,35.82,313.622,35.49,313.037,34.83z"/>
		<path d="M329.641,36.653c-0.826-0.885-1.237-2.122-1.237-3.713V13.905h5.715v17.235c0,0.78,0.165,1.32,0.495,1.62
			c0.33,0.3,0.87,0.45,1.62,0.45h1.575v4.77h-4.59C331.658,37.98,330.466,37.538,329.641,36.653z"/>
		<path d="M341.408,33.211h1.755c0.78,0,1.312-0.15,1.597-0.45s0.428-0.855,0.428-1.665v-7.785l-3.15-3.735
			c3.209-4.229,7.605-6.345,13.185-6.345c3.719,0,6.577,0.84,8.572,2.52c1.995,1.681,2.993,4.006,2.993,6.976V37.98h-5.715V23.176
			c0-1.86-0.495-3.24-1.485-4.141c-0.99-0.899-2.46-1.35-4.41-1.35c-1.44,0-2.708,0.21-3.802,0.63
			c-1.096,0.421-2.123,1.051-3.083,1.89l2.61,3.105v9.585c0,1.591-0.427,2.835-1.282,3.735c-0.855,0.899-2.063,1.35-3.623,1.35
			h-4.59V33.211z"/>
		<path d="M372.188,13.905h5.49v2.97c1.14-1.199,2.467-2.106,3.982-2.722c1.515-0.615,3.038-0.923,4.568-0.923
			c2.97,0,5.234,0.832,6.795,2.497c1.56,1.665,2.34,3.803,2.34,6.413v15.84h-5.715V22.41c0-3.149-1.681-4.725-5.04-4.725
			c-2.91,0-5.146,1.23-6.705,3.689V37.98h-5.715V13.905z"/>
	</g>
</g>
</svg>